<?xml version="1.0" encoding="utf-8"?>
<!-- Generator: Adobe Illustrator 16.0.0, SVG Export Plug-In . SVG Version: 6.00 Build 0)  -->
<!DOCTYPE svg PUBLIC "-//W3C//DTD SVG 1.1//EN" "http://www.w3.org/Graphics/SVG/1.1/DTD/svg11.dtd">
<svg version="1.1" id="Layer_1" xmlns="http://www.w3.org/2000/svg" xmlns:xlink="http://www.w3.org/1999/xlink" x="0px" y="0px"
	 height="39" viewBox="0 0 2094 570" enable-background="new 0 0 2094 570" xml:space="preserve">
<path fill-rule="evenodd" clip-rule="evenodd" fill="#EC3237" d="M73.18,28.073c2.425-1.049,4.876-2.039,7.269-3.155
	c12.21-5.697,24.95-9.185,38.502-9.33c3.998-0.043,7.996-0.083,11.994-0.083c612.092-0.004,1224.185-0.007,1836.276,0.028
	c9.305,0.001,18.656-0.64,27.899,1.112c3.733,2.808,2.159,4.461-1.396,4.171c-6.485-0.527-12.916,0.472-19.386,0.083
	c-138.279-0.162-276.54-0.054-414.801-0.06c-436.104-0.018-872.208,0.006-1308.313-0.023c-44.288-0.004-88.577,0.313-132.822-0.247
	c-2.714,1.177-5.244,3.361-6.921,2.654c3.52,0.858,8.072-4.1,13.329-2.174c5.038,0.154,10.036,0.114,15.034,0.114
	c606.105,0.002,1212.212,0.002,1818.317,0.005c5.998,0,11.995-0.058,17.985-0.074c10.526,0.192,20.985-1.404,31.515-1.314
	c24.304,5.868,42.146,20.628,55.613,41.047c10.346,15.688,15.445,33.197,15.461,51.962c0.095,114.994,0.262,229.989-0.03,344.982
	c-0.139,54.511-43.494,97.436-97.982,98.081c-2.999,0.036-6,0.036-8.999,0.036c-614.303,0-1228.605-0.018-1842.908,0.073
	c-19.044,0.003-37.243-2.979-53.747-12.693c-32.061-18.871-49.671-46.983-50.097-84.341c-0.621-54.656-0.172-109.326-0.175-163.989
	c-0.003-56.331,0.515-112.668-0.241-168.988c-0.326-24.338,3.719-46.961,16.507-67.788C48.697,44.854,58.947,34.339,73.18,28.073z"
	/>
<path fill-rule="evenodd" clip-rule="evenodd" fill="#E83436" d="M2007.662,19.78c-10.063,2.947-20.4,2.123-30.671,2.224
	c-3.466,1.825-7.204,0.921-10.802,0.922c-611.463,0.046-1222.926,0.046-1834.389,0c-3.594,0-7.328,0.898-10.791-0.921
	c-4.658,3.095-9.99,1.248-16.203,3.266c3.158-4.937,8.258-1.597,10.192-5.269c3.462-1.846,7.202-0.926,10.798-0.927
	c613.467-0.047,1226.935-0.047,1840.402,0c3.597,0,7.336-0.908,10.801,0.925c5.514,0.165,10.928-1.981,16.585-0.171
	c2.322,0.743,2.296-1.463,1.535-3.184C1999.477,16.989,2003.787,17.511,2007.662,19.78z"/>
<path fill-rule="evenodd" clip-rule="evenodd" fill="#F7F6F4" d="M50.991,38.007c-0.274-0.155-0.804-0.365-0.784-0.456
	c0.145-0.666,0.459-0.509,0.8,0.44L50.991,38.007z"/>
<path fill-rule="evenodd" clip-rule="evenodd" fill="#FEFEFE" d="M1083.08,95.806c22.299-2.968,44.558-3.023,66.429,2.672
	c43.158,11.238,71.152,46.509,73.059,91.521c0.566,13.379-0.223,26.747-4.112,39.582c-6.611,21.816-19.403,38.463-41.565,46.59
	c-1.534,0.563-2.957,1.427-4.901,2.381c2.147,4.839,6.623,6.82,10.286,9.088c14.158,8.763,19.632,21.951,20.708,37.764
	c0.861,12.656,0.354,25.307,0.22,37.965c-0.159,14.988-0.135,29.979-0.041,44.967c0.019,2.964,0.435,5.995,1.157,8.872
	c1.852,7.364,3.515,8.911,10.958,8.972c17.321,0.14,34.647,0.068,51.97-0.139c7.257-0.087,7.533-0.571,7.996-8.24
	c1.403-23.287,1.68-46.604,1.767-69.928c0.231-62.636-1.204-125.27-0.218-187.906c0.021-1.332,0.045-2.668-0.021-3.998
	c-0.74-14.743-5.923-18.939-20.358-16.531c-4.269,0.712-8.531,1.484-12.82,2.045c-7.821,1.024-13.544-2.126-17.418-8.944
	c-8.598-15.132-0.874-32.755,15.992-36.759c7.332-1.74,14.519-0.955,21.813,0.053c34.093,4.714,68.393,4.909,102.719,4.596
	c27.661-0.253,55.186-1.379,82.523-6.476c19.074-3.557,31.433,7.398,32.215,26.819c0.966,23.971-0.595,47.975,1.003,71.941
	c0.598,8.969,0.66,17.961,1.857,26.905c0.979,7.312,0.516,14.657-1.465,21.808c-2.87,10.368-10.273,15.967-21.27,16.278
	c-11.802,0.334-19.428-4.722-23.176-15.075c-1.51-4.173-1.772-8.466-1.918-12.782c-0.404-12.008,0.414-23.979,1.516-35.924
	c0.891-9.65,0.951-19.323,0.378-28.956c-0.774-13.033-4.61-17.559-17.056-21.406c-6.702-2.072-13.594-3.23-20.604-3.553
	c-17.981-0.826-35.968-0.579-53.961-0.413c-9.423,0.087-16.042,3.447-19.272,12.543c-2.384,1.684-3.297,3.186-2.852,6.826
	c2.739,22.39,1.036,44.918,1.12,67.396c0.002,0.692-0.607,1.159-1.742,1.624c-2.943-1.209-1.603-4.146-2.299-8.432
	c0.663,9.813,3.02,17.395,2.484,25.279c-0.199,2.945,1.957,3.904,4.616,3.839c0.928-0.197,1.861-0.293,2.803-0.34
	c8.501,0.301,17.056,0.513,25.483,1.124c8.886,0.645,13.93-5.14,20.377-8.649c3.667-1.996,2.166-5.654,1.557-8.808
	c0.029-0.667,0.06-1.335,0.089-2.003c0.485-0.44,0.647-0.882,0.487-1.323c-0.16-0.442-0.321-0.663-0.483-0.663
	c-0.04-1.334-0.08-2.669-0.121-4.003c2.587-5.068,2.105-10.151,0.306-15.349c-2.461-7.103-2.11-14.05,3.509-19.463
	c4.167-4.014,8.02-10.025,15.59-6.257c1.186,0.59,2.54-0.242,3.831-0.562c9.337-2.312,14.644,0.679,16.534,9.916
	c1.528,7.463,2.068,15.308,0.892,22.693c-1.151,7.224-1.049,14.524-2.432,21.675c0.454,7.03-1.27,13.859-1.902,20.79
	c-1.313,14.359,0.977,28.517,2.629,42.693c1.037,8.9,2.338,17.777,3.82,26.614c0.854,5.087,0.188,10.005-1.078,14.798
	c-3.614,13.676-19.547,21.352-32.618,15.935c-4.992-2.069-7.763-6.028-9.298-11.029c-2.301-7.492-1.882-15.123-1.066-22.746
	c0.636-5.944,1.592-11.854,2.249-17.797c1.342-12.15-2.38-17.531-14.444-19.398c-8.502-1.316-17.169-1.563-25.763-2.287
	c-14.237,1.912-14.582,2.636-13.951,17.44c1.387,32.531-0.906,65.009-1.849,97.504c-0.713,24.595,1.743,28.693,28.023,27.976
	c21.578-0.589,43.196-0.51,64.774,0.085c7.876,0.217,15.299-5.638,23.233-1.307c0.769,0.2,1.585,0.675,2.36-0.103
	c-1.66,1.057-2.025-0.634-2.877-1.377c-0.821-1.952-1.04-3.702,0.529-5.502c5.075-5.825,5.906-13.06,5.98-20.301
	c0.185-17.849,0.214-35.702-0.002-53.55c-0.112-9.285,0.604-18.407,2.915-27.398c5.522-9.395,14.231-13.594,23.999-11.571
	c9.332,1.933,17.148,10.857,17.947,21.573c0.492,6.611,0.327,13.364-0.403,19.958c-2.727,24.626-1.614,49.244-0.406,73.871
	c0.44,8.987,1.089,17.938-0.462,26.906c-2.787,16.128-10.513,23.169-27.02,23.572c-8.982,0.22-18.022,0.154-26.971-0.582
	c-39.216-3.231-78.472-5.083-117.804-3.3c-25.616,1.161-51.213,2.854-76.792,4.684c-11.649,0.833-23.29,1.275-34.947,1.192
	c-31.005-0.22-50.063-18.267-53.019-49.426c-1.987-20.951-1.91-41.913-1.58-62.905c0.167-10.65,0.401-21.3-1.427-31.888
	c-2.693-15.596-11.523-24.677-27.17-27.975c-11.241-2.37-22.532-2.047-33.814-2.398c-8.979-0.28-17.991,0.143-26.975,0.555
	c-6.882,0.314-7.057,0.579-7.218,7.731c-0.628,27.979-1.197,55.959-1.718,83.939c-0.142,7.661-0.124,15.329-0.019,22.991
	c0.139,10.047,1.471,11.276,11.831,11.161c6.328-0.07,12.657-0.451,18.982-0.381c4.647,0.052,9.22,0.633,13.73,2.209
	c6.525,2.279,9.827,6.47,9.708,13.376c-0.057,3.33,0.109,6.672-0.116,9.989c-0.948,13.997-10.005,21.679-23.963,20.5
	c-12.607-1.064-25.203-2.378-37.833-3.053c-19.347-1.033-38.602,1.098-57.856,2.573c-6.659,0.51-13.314,1.246-19.941,0.487
	c-12.584-1.44-19.451-10.125-18.466-22.817c1.252-16.111,11.688-25.231,27.851-24.239c4.319,0.266,8.615,1.001,12.935,1.149
	c8.435,0.289,10.858-1.934,11.32-10.113c0.188-3.322,0.096-6.662,0.104-9.994c0.133-63.311,0.214-126.622,0.421-189.934
	c0.063-19.324,0.476-38.646,0.722-57.971c0.029-2.332,0.15-4.672,0.012-6.995c-0.615-10.322-3.55-13.058-13.683-12.432
	c-3.975,0.246-7.9,1.274-11.876,1.536c-19.799,1.305-30.434-12.933-23.745-31.654c2.626-1.275,2.716-3.996,3.576-6.276l-0.086,0.111
	c1.574-1.369,3.002-3.396,5.284-1.307c2.042,1.263,0.187-1.506,1.201-1.394c8.494-7.813,11.099-8.001,21.578-1.631
	c0.71,1.065,1.268,2.268,2.42,2.972c0.805,0.491,1.828,0.274,2.643,0.759c-0.639-0.77-1.766-0.283-2.418-0.88
	c-1.599-1.462-4.054-2.81-1.052-5.242c29.005,3.324,58.097,1.465,87.139,1.819C1076.68,96.996,1080.143,98.197,1083.08,95.806z"/>
<path fill-rule="evenodd" clip-rule="evenodd" fill="#FEFEFE" d="M550.941,387.936c5.711-23.593,11.508-47.164,17.114-70.782
	c12.675-53.397,25.283-106.812,37.857-160.233c3.536-15.023,2.103-16.695-13.454-16.707c-2.997-0.002-6,0.027-8.988-0.155
	c-12.534-0.764-18.019-6.598-17.942-19.091c0.026-4.359,0.855-8.64,2.357-12.705c3.623-9.802,9.894-14.489,20.461-14.183
	c15.961,0.462,31.907,1.5,47.853,2.412c37.927,2.169,75.906,1.089,113.854,1.91c27.616,0.598,55.239,0.909,82.859,1.348
	c15.329-1.335,30.974,0.884,45.979-4.085l-0.125,0.108c2.91-1.383,5.764-0.78,8.403,0.589c3.003,1.559,2.953,2.326-0.634,7.778
	c4.709-3.479,6.246-9.717,12.335-7.677c1.052-0.055,1.231,2.116,2.694,1.069c-0.716-0.425-0.951-0.957-0.361-1.688
	c5.454-1.335,8.429,2.809,10.802,6.072c2.028,2.788,4.567,4.235,7.108,6.022c2.996,2.924,2.175,6.826,2.489,10.356
	c1.123,12.631,0.657,25.303,0.706,37.962c0.079,20.649-0.235,41.303,2.143,61.893c0.838,7.248,0.9,14.616-1.146,21.832
	c-3.32,11.71-10.189,16.85-22.701,16.725c-12.619-0.126-19.428-5.197-22.619-16.913c-1.868-6.858-1.4-13.887-1.32-20.869
	c0.18-15.654,2.903-31.195,2.138-46.897c-0.146-2.994-0.043-6-0.196-8.992c-0.521-10.14-5.492-16.662-15.367-19.726
	c-8.045-2.497-16.27-3.247-24.567-4c-16.974-1.54-33.976-1.268-50.938-0.479c-15.245,0.71-20.031,5.76-20.347,21.181
	c-0.482,23.65-0.236,47.314-0.603,70.968c-0.104,6.72,3,10.836,8.757,13.033c11.375,4.342,22.846,4.248,33.962-0.908
	c6.251-2.9,9.696-7.918,9.392-15.129c-0.111-2.652,0.06-5.316,0.102-7.976c2.688-4.531,1.224-10.216,0.52-14.038
	c-1.576-8.55-3.378-15.252,6.836-19.199c1.21-0.468-1.017-4.569,0.562-6.842l-0.002,0.006c5.051-1.39,4.972-0.392,14.869,0.392
	c2.625,0.207,4.831-2.02,8.711,0.645c15.761,10.824,8.843,26.373,8.362,39.856c-0.56,15.684-5.231,31.249-5.489,46.968
	c-0.249,15.122,3.82,30.087,5.313,45.217c1.167,11.831,3.302,23.593-1.642,35.091c-7.008,9.22-18.137,12.788-28.096,8.997
	c-5.44-2.07-8.408-6.267-10.006-11.65c-1.936-6.52-1.928-13.157-1.148-19.818c0.812-6.946,1.9-13.861,2.619-20.815
	c1.191-11.54-2.703-16.452-14.202-18.847c-8.555-1.781-17.173-2.27-25.846-1.736c-10.183,0.626-13.141,3.486-13.291,13.363
	c-0.545,35.648-0.938,71.299-1.36,106.949c-0.023,1.992,0.099,4.002,0.347,5.979c1.391,11.079,5.724,15.09,16.934,15.507
	c3.315,0.123,6.646-0.174,9.97-0.277c2.021-2.041,4.644-2.409,7.301-2.445c15.156-0.207,30.313-0.199,45.469-0.005
	c2.656,0.034,5.282,0.38,7.324,2.396c5.478,0.947,10.653-0.588,15.629-2.418c9.995-3.676,15.709-10.777,16.271-21.708
	c0.703-13.66,0.463-27.315,0.101-40.977c-0.222-8.327-0.357-16.658-0.36-24.987c-0.001-4.324,0.392-8.602,1.718-12.818
	c3.833-12.195,13.193-19.07,24.394-17.637c11.093,1.419,19.638,10.494,20.269,22.581c0.396,7.622,0.042,15.347-0.718,22.952
	c-2.097,20.971-1.482,41.926-0.422,62.901c0.604,11.963,1.971,23.949-0.383,35.868c-2.614,13.234-8.374,18.952-21.488,21.566
	c-6.613,1.318-13.292,0.816-19.934,0.452c-24.947-1.37-49.896-2.727-74.828-4.346c-28.026-1.821-55.945,0.395-83.882,1.894
	c-14.627,0.785-29.219,2.344-43.852,2.913c-15.118,0.588-22.995-7.901-21.72-22.902c1.122-13.193,7.756-26.015,26.724-23.682
	c4.616,0.568,9.312,0.609,13.974,0.677c9.459,0.137,10.035-0.369,10.42-10.164c0.654-16.646,1.521-33.297,1.631-49.95
	c0.249-37.989,0.041-75.98,0.119-113.97c0.066-32.324,0.273-64.648,0.418-96.973c0.008-1.666,0.094-3.336,0.014-4.997
	c-0.428-8.868-3.197-11.755-12.14-12.445c-1.961-0.15-3.961,0.216-5.943,0.344c-10.677,2.701-21.379,0.403-32.071,0.165
	c-4.963,1.244-5.047,5.729-5.951,9.416c-16.811,68.506-33.418,137.062-50.342,205.538c-6.944,28.097-14.459,56.054-21.88,84.031
	c-2.14,8.066-5.401,15.73-10.076,22.729c-8.012,11.995-19.589,16.621-33.515,15.787c-13.958-0.837-23.585-7.981-29.043-20.929
	c-3.91-9.277-5.931-19.044-8.058-28.797c-7.525-34.499-18.892-67.98-27.116-102.294c-9.929-41.425-19.852-82.852-29.766-124.279
	c-4.185-17.483-11.378-34.111-14.665-51.865c-0.456-2.462-2.456-4.639-3.741-6.948c-6.789-3.475-14.229-4.706-21.634-5.417
	c-4.884-0.47-7.103-2.64-8.246-7.031c-1.173-4.499-2.39-9.046-5.321-12.832c-4.343-5.607,0.617-8.73,3.691-11.583
	c3.588-3.329,5.938-2.729,6.982,3.103c0.374,2.082,6.31-0.892,8.16,0.196c-0.66-0.161-2.795,0.243-4.861,0.072
	c-1.845-0.153-3.235-0.854-3.293-2.91c-0.057-1.975,1.384-2.899,2.949-3.58c1.225-0.533,2.57-0.968,3.879-0.836
	c15.762,1.593,31.342-3.952,47.224-0.818c9.176,1.811,18.484-1.945,27.816-0.782c3.142,0.392,6.818-0.95,9.079,3.07
	c-2.475,3.286-5.903,1.441-8.879,2.013c8.502-1.089,17.001-0.283,25.333,0.08c0.757-0.536,0.479-0.18-0.514-0.296
	c-4.061-0.475-8.841,2.017-11.933-2.619c-0.579-0.867-0.284-2.119,0.549-2.665c3.961-2.593,8.389-1.848,12.568-1.048
	c9.233,1.766,18.807,11.812,20.171,20.978c1.303,8.751-8.132,11.427-10.676,18.141c-0.716,1.887-3.746,2.667-4.647,4.995
	c-4.698,2.559-9.781,1.271-14.69,1.339c-11.52,0.157-12.045,0.537-9.558,12.137c6.629,30.922,13.369,61.819,20.145,92.709
	c9.912,45.188,19.886,90.362,29.869,135.534c0.426,1.926,1.212,3.771,1.83,5.654c1.248,0.828,1.216,1.908,0.607,3.102
	C550.154,390.162,549.941,388.764,550.941,387.936z"/>
<path fill-rule="evenodd" clip-rule="evenodd" fill="#FEFEFE" d="M309.334,289.889c1.925,12.798,3.991,25.577,5.705,38.403
	c0.711,5.321-0.073,10.635-2.141,15.685c-4.795,11.716-20.594,18.161-31.885,12.805c-6.687-3.172-9.521-9.069-10.106-16.123
	c-0.719-8.663-0.206-17.294,0.961-25.911c0.669-4.938,1.153-9.928,1.28-14.905c0.163-6.399-2.915-10.905-9.186-12.647
	c-11.358-3.155-22.978-4.087-34.646-2.545c-6.225,0.822-8.321,3.557-9.02,9.979c-0.395,3.637-0.581,7.311-0.616,10.97
	c-0.313,32.318-0.574,64.638-0.841,96.956c-0.02,2.332-0.068,4.671,0.075,6.996c0.698,11.327,5.458,16.327,17.007,16.438
	c24.32,0.236,48.646,0.051,72.969-0.054c5.747-0.025,11.21-1.634,16.271-4.284c6.899-3.612,11.219-9.114,12.241-17.111
	c1.828-14.29,1.35-28.579,0.615-42.9c-0.682-13.281-2.297-26.649,1.522-39.738c3.005-10.295,11.036-16.58,21.096-16.92
	c9.303-0.313,17.693,5.46,21.609,14.926c1.945,4.703,2.605,9.608,2.188,14.682c-0.546,6.641-0.958,13.293-1.553,19.929
	c-2.184,24.318,0.043,48.609,0.332,72.914c0.082,6.987,0.272,14.042-0.534,20.955c-1.516,13.002-7.865,19.332-20.645,22.254
	c-8.621,1.971-17.239,0.936-25.866,0.462c-27.271-1.496-54.524-3.674-81.815-4.413c-35.323-0.957-70.545,1.991-105.741,4.784
	c-4.644,0.368-9.324,0.648-13.973,0.491c-9.161-0.31-15.169-5.098-17.099-13.871c-1.529-6.957-1.178-13.941,1.967-20.527
	c3.763-7.881,9.637-12.634,18.793-12.295c6.991,0.26,13.979,0.728,20.973,0.8c6.88,0.071,7.527-0.437,8.153-7.076
	c0.688-7.289,1.095-14.619,1.289-21.939c1.735-65.3,0.299-130.609,0.567-195.914c0.052-12.661,0.303-25.32,0.384-37.981
	c0.025-3.992,0.058-8.016-0.37-11.975c-1.105-10.245-5.613-13.959-16.038-13.064c-5.625,0.483-11.19,1.628-16.798,2.357
	c-11.605,1.508-16.651-5.351-19.186-13.528c-5.232-16.887,5.181-31.226,23.372-32.813c9.094-0.794,17.919,1.297,26.831,2.239
	c20.557,2.175,41.141,3.484,61.81,3.632c26.659,0.19,53.308,0.019,79.915-1.946c11.318-0.835,22.399-3.199,33.545-5.142
	c16.926-2.951,31.338,8.424,32.014,25.554c0.328,8.319,0.263,16.656,0.264,24.986c0.004,23.982-0.517,47.972,1.955,71.895
	c0.719,6.956,0.901,13.983-0.041,20.954c-1.735,12.829-8.693,19.618-20.644,20.31c-14.869,0.861-22.283-4.398-25.58-18.007
	c-2.315-9.561-1.92-19.242-0.847-28.828c1.676-14.956,1.716-29.936,1.425-44.919c-0.256-13.211-4.634-18.59-17.247-22.207
	c-7.396-2.121-15.031-2.722-22.673-3.398c-16.643-1.473-33.293-0.847-49.944-0.539c-2.317,0.043-4.643,0.466-6.935,0.881
	c-8.682,1.571-13.235,5.732-13.512,14.666c-0.8,25.969-1.012,51.957-1.402,77.939c-0.079,5.235,2.736,8.726,7.219,11.066
	c6.432,3.358,13.377,3.832,20.419,3.511c3.651-0.167,7.287-0.693,10.93-1.058c13.256-3.982,13.449-4.189,13.868-17.758
	c0.093-3.02,0.58-5.795,2.929-7.938c1.747-1.514,2.138-3.506,2.016-5.68c-0.294,2.538-0.076,5.409-3.758,5.746
	c-2.401-10.758-4.127-21.514-0.406-32.334l-0.038-0.027c1.957-2.017,5.085,2.678,5.13,0.375c0.177-9.007,7.585-9.445,12.996-12.357
	l-0.065,0.063c1.456-0.887,2.914-0.877,4.374-0.011l-0.065-0.07c16.593,7.144,21.568,18.156,18.028,38.465l0.099-0.147
	c-4.719,24.276-7.383,48.709-5.561,73.477C307.77,288.544,308.566,289.254,309.334,289.889z"/>
<path fill-rule="evenodd" clip-rule="evenodd" fill="#FEFEFE" d="M1712.968,107.997c2.964,3.015,1.981,6.871,2.064,10.419
	c0.201,8.67-0.948,17.265-1.716,25.886c-1.87,21.01,0,41.886,2.521,62.738c0.638,5.273,0.82,10.609,1.055,15.923
	c0.421,9.551-4.42,15.829-12.907,19.299c-7.867,3.218-16.04,4.096-24.429,1.798c-6.674-1.828-10.943-5.801-12.777-12.583
	c-1.873-6.924-1.493-13.825-0.651-20.807c1.691-14.037,1.552-27.856-4.271-41.179c-8.826-20.192-27.4-32.145-48.044-30.605
	c-24.215,1.805-42.915,16.306-48.683,37.744c-3.474,12.914-2.617,25.668,1.223,38.367c2.45,8.103,7.893,13.74,14.632,18.336
	c10.891,7.428,23.277,11.345,35.822,14.7c15.729,4.207,31.586,7.93,47.329,12.085c12.348,3.259,23.522,8.882,33.787,16.623
	c23.392,17.644,34.577,41.592,36.807,70.159c1.303,16.688-0.191,33.172-5.649,49.141c-4.801,18.674-15.879,33.745-27.746,48.364
	l-0.007,0.035c-1.042-0.771-2.925,0.097-3.941,1.655c-4.093,6.275-12.249,8.02-16.191,14.476
	c-15.784,13.838-34.572,17.303-54.852,16.379c-25.489-1.161-47.098-10.691-64.991-28.804c-0.915-0.926-1.744-2.064-3.436-1.964
	c-2.417,1.307-1.913,3.802-2.127,5.996c-0.257,2.648-0.208,5.346-0.677,7.952c-1.875,10.445-9.151,17.533-18.386,18.117
	c-10.745,0.679-20.732-6.126-23.275-16.509c-1.661-6.785-1.999-13.766-1.609-20.835c1.173-21.281,2.902-42.542,2.851-63.878
	c-0.026-10.679-1.326-21.209-2.962-31.766c-1.406-9.073-3.367-18.394,0.826-27.396c2.922-3.178,7.385-5.012,8.513-9.755l0.07-0.041
	c3.256-1.526,6.588-3.552,10.166-3.18c5.195,0.539,6.415,2.922,1.62,6.402c-0.95,0.23-1.778,0.979-2.861,0.759
	c0.949,0.72,1.395-0.581,2.223-0.546c2.675,0.373,5.374-0.242,8.546,0.819c-2.398-2.578-4.533-5.037-2.011-7.977
	c2.054-2.392,4.162-0.51,6.208,0.541c6.813,3.498,11.876,8.846,16.144,15.059c2.911,6.137,1.648,12.386,0.276,18.543
	c-4.367,19.6-2.538,38.396,7.079,56.185c14.479,26.781,43.197,39.362,71.846,31.411c23.851-6.619,37.841-22.891,42.354-52.394
	c1.358-8.88,0.347-17.877-1.321-26.824c-2.898-15.541-11.675-25.713-26.304-31.185c-16.843-6.301-34.11-11.188-51.513-15.646
	c-14.86-3.807-29.093-9.27-43.088-15.574c-27.856-12.548-44.021-34.301-48.765-63.826c-6.885-42.852,5.305-79.919,38.195-108.888
	c21.02-18.514,45.91-24.862,73.505-18.828c7.391,1.616,15.12,2.382,21.738,6.635c3.736,7.369,12.378,8.916,17.708,14.565
	c0.989,1.048,8.75,5.342,8.837-3.499c0.023-2.441,2.118-3.773,4.55-4.618C1688.805,101.648,1701.162,99.397,1712.968,107.997z"/>
<path fill-rule="evenodd" clip-rule="evenodd" fill="#FEFEFE" d="M1800.857,427.643c5.635-3.402,11.594-1.962,17.403-0.908
	c17.414,3.159,20.477,0.919,20.531-16.398c0.26-81.621,0.427-163.242,0.619-244.863c0.004-1.665-0.039-3.333-0.143-4.994
	c-0.733-11.748-6.685-18.507-18.21-20.161c-7.717-1.106-15.289-0.199-22.449,3.12c-8.885,4.119-14.192,10.351-13.971,20.883
	c0.391,18.633-0.646,37.278,1.758,55.881c1.149,8.89,1.295,17.927-1.296,26.772c-3.441,11.75-12.57,19.348-22.834,18.742
	c-11.219-0.662-19.652-8.958-21.39-21.454c-1.238-8.912-1.585-17.815-0.589-26.877c1.824-16.579,1.232-33.266,1.078-49.926
	c-0.156-16.965-1.448-33.957,1.255-50.873c2.704-16.926,14.339-26.679,31.397-24.795c25.147,2.776,50.199,6.281,75.566,6.764
	c30.014,0.572,59.921-0.556,89.768-3.815c9.585-1.047,19.272-1.728,28.829,0.544c12.905,3.068,19.455,10.389,20.711,23.506
	c0.443,4.625,0.243,9.317,0.244,13.979c0.011,30.305-1.187,60.627,1.447,90.893c0.699,8.029-0.098,15.993-1.967,23.807
	c-2.717,11.354-11.54,17.605-23.668,17.021c-11.65-0.563-19.44-7.184-20.798-18.856c-2.085-17.921-1.169-35.926-0.323-53.898
	c0.407-8.647,0.713-17.31,1.46-25.932c1.799-20.785-11.808-27.932-27.47-29.282c-4.068-0.352-7.994,0.62-11.81,1.722
	c-9.891,2.854-13.491,7.724-13.563,18.08c-0.416,60.963-0.829,121.926-1.173,182.889c-0.144,25.319-0.156,50.639-0.14,75.958
	c0.007,12.087,4.028,15.384,16.126,13.251c6.525-1.15,12.839-3.328,19.656-2.873c13.873,0.928,22.704,10.729,21.601,24.599
	c-0.453,5.691-1.964,11.155-5.284,15.927c-3.247,4.666-7.641,7.863-13.467,7.004c-31.165-4.594-62.486-2.963-93.777-2.745
	c-0.99,0.007-1.982-0.184-2.975-0.282c-7.774-1.515-15.52,0.355-23.292,0.218c-12.59-0.223-20.849-6.599-22.518-17.562
	c-1.139-7.476,3.472-12.453,7.486-17.468C1796.713,432.709,1799.029,430.367,1800.857,427.643z"/>
<path fill-rule="evenodd" clip-rule="evenodd" fill="#EE3231" d="M1977,20c-620.667,0.001-1241.334,0.002-1862.001,0.002
	c-0.646-1.213,0.035-1.908,1.088-1.957c2.66-0.123,5.33-0.042,7.995-0.042c613.516-0.001,1227.032-0.004,1840.548,0.075
	C1968.762,18.079,1973.352,16.391,1977,20z"/>
<path fill-rule="evenodd" clip-rule="evenodd" fill="#F22C3D" d="M121.01,22.005c618.66,0,1237.321-0.001,1855.982-0.001
	c-1.061,1.491-2.579,1.981-4.323,1.982c-2.666,0.002-5.331,0.013-7.997,0.013C1354.225,24,743.776,24.004,133.329,23.916
	C129.225,23.916,124.622,25.724,121.01,22.005z"/>
<path fill-rule="evenodd" clip-rule="evenodd" fill="#FAFAF9" d="M521.236,140.65c-0.033-2.275-0.804-5.023,1.906-6.155
	c2.939-1.228,3.935-3.229,3.947-6.168c0.009-2.219,1.302-3.253,3.315-4.328c5.56-2.969,5.916-4.47,2.758-9.668
	c-0.853-1.402-1.835-2.678-2.406-4.265c-3.698-10.273-14.736-13.948-26.487-10.636c2.866,3.752,6.796,2.122,10.156,2.582
	c2.961,0.405,6.805-1.378,9.023,4.57c-7.639-3.379-14.727-1.63-21.425-2.81c-6.903-1.217-12.644,3.643-20.855,3.479
	c4.733-7.274,11.273-3.998,17.678-6.696c-14.026-1.552-26.237-0.115-38.399-0.573c-4.618-0.174-9.326,0.764-13.829-1.114
	c-0.874-0.365-2.507-0.751-2.819-0.356c-7.669,9.667-17.72,0.775-26.285,3.404c-2.314,0.71-5.146-0.425-7.84,1.85
	c4.058,4.23,9.325,0.627,13.423,3.221c-5.081,3.219-13.174-3.122-15.187,5.784c-5.046-2.885-0.524-6.579-2.119-9.301
	c-5.182-0.239-3.24,7.632-8.504,6.926c0.091,0.636,0.112,1.808,0.283,1.829c8.488,1.104,3.494,10.653,8.664,13.776
	c-2.555,8.305,2.794,6.359,7.506,6.113c6.664-0.349,11.977,4.532,18.384,5.541c0.374,0.06,0.482,1.805,0.714,2.766
	c-6.611-1.267-13.285-0.402-19.928-0.6c-11.383-0.337-16.029-4.462-18.458-15.646c-1.251-5.757-0.602-11.333,1.058-16.742
	c2.601-8.474,9.648-13.945,18.477-13.889c12.696,0.081,25.246,1.641,37.809,2.855c16.388,1.586,32.563-0.133,48.81-1.358
	c4.638-0.35,9.326-0.848,13.939-0.53c13.493,0.931,24.065,12.689,23.863,26.098C538.25,131.051,532.499,137.764,521.236,140.65z"/>
<path fill-rule="evenodd" clip-rule="evenodd" fill="#F9F8F7" d="M1443,426c-0.472,0.455-0.94,1.304-1.416,1.308
	c-36.11,0.273-72.221,0.514-108.332,0.658c-5.221,0.021-10.947-6.866-10.504-12.193c0.082-0.993,0.262-1.989,0.231-2.979
	c-1.089-34.937,3.511-69.772,1.9-104.705c-0.338-7.325,0.195-14.938-4.275-21.875c6.885-0.325,12.747-3.455,19.137-1.983
	c-2.212,0.669-4.472,1.219-6.632,2.033c-3.742,1.41-6.094,3.939-6.065,8.213c0.011,1.665-0.206,3.33-0.198,4.994
	c0.152,34.33-0.689,68.645-1.339,102.965c-0.382,20.212,3.624,24.072,23.615,24.144c20.995,0.075,41.991-0.027,62.987-0.118
	c4.324-0.019,8.641-0.202,12.869-1.421c12.932-3.726,19.002-10.869,19.765-24.309c1.04-18.321-0.012-36.646-0.312-54.972
	c-0.156-9.537-1.353-19.4,4.451-28.062c-3.133,28.365-1.025,56.855-2.229,85.249c-0.254,5.98,2.054,14.12-6.119,18.284
	C1439.546,421.735,1441.221,424.809,1443,426z"/>
<path fill-rule="evenodd" clip-rule="evenodd" fill="#F23233" d="M2075.276,463.346c0-117.557,0-235.114,0-352.672
	c0.329-0.001,0.659-0.002,0.988-0.003c0,117.686,0,235.37,0,353.056C2075.936,463.6,2075.605,463.473,2075.276,463.346z"/>
<path fill-rule="evenodd" clip-rule="evenodd" fill="#F8F9F9" d="M1379.016,231.996c5.552,8.568,5.521,8.689-3.227,12.189
	c-0.608,0.244-1.541,0.232-1.819,0.664c-6.411,9.956-15.937,6.036-24.723,5.728c-6.08-0.214-12.232,1.953-18.619-0.866
	c-0.655-0.493-0.804-0.586-0.817-0.566c-0.002,0.002,0.14,0.105,0.425,0.309c1.085,0.774-0.024,1.621,0.765,0.547
	c0.012-0.016-0.236-0.208-0.372-0.289c-6.53,2.723-9.638,1.724-9.383-3.558c0.512-10.563-1.255-21.124,0.296-33.009
	c2.478,4.699,0.654,8.998,2.745,12.545c-0.723-24.52,4.079-49.2-3.142-73.45c2.156-0.669,4.27,1.271,6.323-0.104
	c-0.254,26.181-0.576,52.361-0.722,78.543c-0.047,8.428,2.752,12.428,10.339,14.843c9.749,3.104,19.573,3.162,29.276-0.422
	C1372.673,242.769,1376.891,238.386,1379.016,231.996z"/>
<path fill-rule="evenodd" clip-rule="evenodd" fill="#F9F9F8" d="M857.037,348.094c0.026-4.64-0.505-9.313,1.504-13.776
	c0.517-1.146,0.521-2.639,0.401-3.939c-1.31-14.153-0.529-28.981-4.707-42.243c-3.641-11.557-3.528-22.946-1.687-33.378
	c1.984-11.24,3.05-22.628,5.175-33.833c1.666-8.784,0.236-17.653,1.184-26.449c0.352-3.267-1.668-7.248-4.336-6.906
	c-5.61,0.719-6.836-0.846-6.12-6.001c0.202-1.458-1.854-3.292-3.504-1.867c-2.379,2.054-4.32,6.032-5.415-0.695
	c-0.02-0.12-1.904-0.211-2.742,0.126c-3.235,1.299-6.57,0.758-9.878,0.795c11.274-11.084,33.137-3.389,34.584,14.999
	c1.027,13.056-0.496,25.993-2.941,38.646c-5.148,26.635-2.632,52.917,1.563,79.262c0.783,4.921,1.8,9.83,2.174,14.784
	C862.846,334.958,862.362,342.189,857.037,348.094z"/>
<path fill-rule="evenodd" clip-rule="evenodd" fill="#F8F9F9" d="M1417.217,236.658c-0.211-7.251-0.125-14.36,1.337-21.639
	c1.671-8.316-0.354-16.873-1.952-25.195c-0.601-3.125-1.938-5.856-5.743-2.287c-0.771,0.724-1.993,0.148-2.725-1.598
	c-1.458-3.482-1.946-3.476-4.216-1.171c-1.824,1.854-3.297,2.415-5.969,1.331c-5.83-2.365-5.926-2.129-11.433,2.354
	c-8.036,6.542-9.151,12.446-3.995,21.156c2.418,4.086,1.195,9.067-3.534,14.395c-2.33-8.775-2.936-17.768-2.526-26.749
	c0.454-9.986,8.64-19.015,18.326-21.132c13.177-2.88,25.071,5.344,26.252,19.091
	C1422.237,209.165,1420.752,223.051,1417.217,236.658z"/>
<path fill-rule="evenodd" clip-rule="evenodd" fill="#F8F9FA" d="M1712.968,107.997c-3.538-0.293-7.122,0.687-10.429-2.121
	c-2.063-1.752-7.431,3.185-7.982-3.461c-0.041-0.482-3.462-0.506-3.491,0.269c-0.268,7.156-6.144,4.416-9.423,5.051
	c-7.659,1.481-7.723,1.075-8.833,9.389c-0.077,0.579-0.633,1.096-1.145,1.933c-2.128-1.58-3.891-3.816-7.169-3.138
	c-3.988,0.824-7-0.44-8.358-4.893c-0.76-2.49-3.406-2.688-5.811-3.046c-6.629-0.987-6.614-1.089-5.15-8.424
	c6.243,1.419,9.816,6.498,14.272,10.381c5.689,4.957,8.437,4.954,11.34-1.862c4.002-9.396,10.709-13.009,20.342-12.732
	C1700.715,95.617,1708.688,98.601,1712.968,107.997z"/>
<path fill-rule="evenodd" clip-rule="evenodd" fill="#EC3331" d="M777,422c-3.501-1.434-4.246-4.674-6.223-9.145
	c27.582,4.144,54.159,2.938,80.705,3.193c4.603,0.045,4.601,0.277,10.032,4.734c-1.154,1.718-2.963,1-4.513,1.222
	c-0.585,0.009-1.17,0.018-1.755,0.028c-19.745,1.337-39.498,0.884-59.233,0.322c-5.855-1.463-11.496-7.086-17.795-0.972
	C777.815,421.596,777.408,421.798,777,422z"/>
<path fill-rule="evenodd" clip-rule="evenodd" fill="#F7F8F7" d="M1800.857,427.643c0.003,3.537,1.158,7.452-4.074,8.762
	c-2.442,0.611-3.938,2.498-2.843,5.363c0.355,0.93,0.853,2.289-0.197,2.613c-11.21,3.456-2.399,10.471-2.034,15.225
	c0.386,5.011,6.375,7.033,11.217,8.335c6.541,1.759,13.174-0.706,19.761,0.068c3.492,0.41,7.411-1.301,10.327,2.038
	c-8.857,1.715-17.836,2.274-26.758,1.322c-12.098-1.293-19.703-8.074-21.062-17.836
	C1783.673,442.598,1789.77,432.521,1800.857,427.643z"/>
<path fill-rule="evenodd" clip-rule="evenodd" fill="#F7F8F6" d="M985,98c-8.358-4.305-15.992-4.619-22,4.001v-0.003
	c-2.066-1.368-4.172-0.986-6.287-0.138c3.281-7.32,9.287-10.092,16.885-9.641c5.63,0.334,11.231,1.163,16.838,1.83
	c27.519,3.275,55.123,1.73,82.705,1.535c3.313-0.023,6.625,0.143,9.938,0.222c-2.824,3.486-6.765,2.113-10.245,2.137
	c-18.949,0.125-37.9,0.034-56.851,0.081c-3.629,0.01-7.337-0.55-10.843,0.94c-2.359,1.003-4.17,0.453-6.385-1.004
	C994.362,95.07,989.575,94.814,985,98z"/>
<path fill-rule="evenodd" clip-rule="evenodd" fill="#EC3331" d="M853.051,425.691c-20.031,0.821-40.063,0.703-60.094,0.054
	c-2.268-2.493-5.284-1.535-8.047-1.745c-2.753-0.209-5.801,0.753-7.91-2c5.282-4.142,10.889-3.172,16.568-1.056
	c17.894,0.202,35.789-0.018,53.683,0.128c3.249,0.027,6.638-0.842,9.742,0.923l0.009,0.01
	C855.686,423.233,854.368,424.462,853.051,425.691z"/>
<path fill-rule="evenodd" clip-rule="evenodd" fill="#F8F9F8" d="M1530.995,311.995c0.563-1.767,3.83-2.169,2.78-4.506
	c-0.984-2.194-3.375-1.571-5.131-1.021c-2.47,0.773-4.855,1.74-7.505,1.6c12.159-8.311,26.286-7.758,35.144,1.507
	c2.738,2.863,5.437,5.892,4.891,10.371c-6.896-3.396-10.855-10.407-17.464-14.178c-1.553-0.887-3.169-1.784-4.133,0.2
	c-0.786,1.62,0.02,3.235,1.984,3.816c2.608,0.771,4.964,1.834,6.24,5.57c-5.987-0.687-11.56-0.922-16.801-3.351L1530.995,311.995z"
	/>
<path fill-rule="evenodd" clip-rule="evenodd" fill="#F8F9F6" d="M919.115,107.938c-3.458,0.128-6.11,0.338-8.145-4.146
	c-1.262-2.779-4.349-7.929-9.971-5.793c-3.597,0.404-7.54-1.183-9.521,4.327c-1.271,3.537-5.543,1.385-8.652,1.307
	c0.451-1.479,1.449-1.495,2.346-1.682c3.269-0.679,4.092-1.968,1.033-4.195c-2.22-1.617-4.854-1.715-7.438-1.983
	c6.511-2.428,13.238-4.635,20.164-3.271C907.992,94.286,915.736,98.423,919.115,107.938z"/>
<path fill-rule="evenodd" clip-rule="evenodd" fill="#F8F9F7" d="M309.334,289.889c-1.626-0.539-3.697-1.47-3.474-3.091
	c1.339-9.696-2.391-19.268,0.493-29.226c2.033-7.018,0.968-14.932,1.269-22.446c0.013-0.315-0.331-0.75-0.211-0.94
	c3.898-6.148,2.022-13.97,5.843-20.131c0.486,7.313-0.857,14.461-2.125,21.589C307.928,253.649,308.272,271.753,309.334,289.889z"/>
<path fill-rule="evenodd" clip-rule="evenodd" fill="#F8F9F7" d="M272.797,187.764c0.24,8.675-1.082,17.354,0.162,26.035
	c0.319,2.234-0.11,4.611,2.042,6.202L274.999,220c-0.046,3.256-2.144,6.009-1.838,9.473c1.102,12.506-0.828,14.78-13.066,16.388
	c-0.63,0.083-1.294-0.084-1.944-0.134c2.238-1.34,4.557-2.566,6.702-4.043c4.351-2.994,6.761-7.023,6.644-12.508
	c-0.156-7.272-0.971-14.469-1.742-21.692C269.033,200.743,267.483,193.662,272.797,187.764z"/>
<path fill-rule="evenodd" clip-rule="evenodd" fill="#F7F5F5" d="M1701.334,444.405c-0.33-5.69,6.763-8.953,4.973-15.142
	c-0.042-0.144,0.34-0.44,0.56-0.624c12.757-10.649,12.712-10.661,16.314-23.77c0.972-3.535,3.234-6.352,5.899-8.829
	C1725.295,415.297,1716.663,431.772,1701.334,444.405z"/>
<path fill-rule="evenodd" clip-rule="evenodd" fill="#F9F9F8" d="M826.915,179.92c1.601,1.678,0.096,4.773,2.545,5.957
	c2.864,1.385,2.028,1.393-0.354,2.221c-8.162,2.84-9.917,6.151-10.277,12.128c-0.207,3.437,6.953,2.817,2.931,7.495
	c-1.904,2.213-0.748,5.66,0.283,8.54c0.975,2.724-0.891,3.414-3.045,3.738c-2.42-6.949-2.3-14.198-2.413-21.398
	C816.456,190.452,819.692,184.057,826.915,179.92z"/>
<path fill-rule="evenodd" clip-rule="evenodd" fill="#F8F9F7" d="M313.156,214.201c-0.059-4.25,0.097-8.518-0.229-12.747
	c-0.431-5.599,0.641-12.194-7.449-13.71c-0.291-0.055-0.795-0.315-0.784-0.445c0.592-6.997-6.522-7.599-9.566-11.562
	c10.921,1.338,17.438,7.053,19.216,17.928C315.458,200.482,315.798,207.489,313.156,214.201z"/>
<path fill-rule="evenodd" clip-rule="evenodd" fill="#ED2E45" d="M235.167,420.545c19.75,0,39.499,0,59.249,0
	c0.005,0.252,0.01,0.506,0.016,0.758c-19.75,0-39.499,0-59.248,0C235.178,421.051,235.173,420.797,235.167,420.545z"/>
<path fill-rule="evenodd" clip-rule="evenodd" fill="#F8F9F6" d="M878.893,95.664c-3.924,3.315-8.775,3.97-13.566,4.258
	c-9.433,0.566-18.982-0.897-28.294,1.903c-1.624,0.488-3.138-0.59-4.118-2.076c3.116-1.337,6.476-1.283,9.706-1.203
	C854.824,98.847,866.774,96.242,878.893,95.664z"/>
<path fill-rule="evenodd" clip-rule="evenodd" fill="#F8F9F7" d="M290.885,175.754c-0.122,0.299-0.275,0.59-0.359,0.899
	c-1.285,4.751-8.608,1.526-8.873,5.827c-0.231,3.763-1.914,6.438-3.344,9.86c-1.898-1.575-3.725-3.089-5.55-4.604
	C276.406,180.12,282.174,175.711,290.885,175.754z"/>
<path fill-rule="evenodd" clip-rule="evenodd" fill="#F7F5F5" d="M1681.194,460.571c1.075-4.735,3.736-8.043,8.336-9.905
	c3.348-1.355,5.85-3.564,7.454-7.122c1.996-4.428,2.699,1.333,4.343,0.896C1695.752,451.234,1689.063,456.639,1681.194,460.571z"/>
<path fill-rule="evenodd" clip-rule="evenodd" fill="#DB3437" d="M666.99,138.031c10.68-2.061,21.378-0.631,32.071-0.165
	c-0.767,0.583-1.539,1.68-2.298,1.67C686.823,139.409,676.723,142.162,666.99,138.031z"/>
<path fill-rule="evenodd" clip-rule="evenodd" fill="#F8F9F8" d="M1521.069,308.109c0.478,6.479,0.478,6.479-8.513,9.755
	C1513.853,313.268,1516.771,310.087,1521.069,308.109z"/>
<path fill-rule="evenodd" clip-rule="evenodd" fill="#F7F8F6" d="M956.798,101.749c0.267,2.923,0.518,5.837-3.576,6.275
	C953.516,105.421,954.608,103.272,956.798,101.749z"/>
<path fill-rule="evenodd" clip-rule="evenodd" fill="#F8F9F7" d="M295.193,175.807c-1.458,0.004-2.916,0.008-4.374,0.011
	C292.274,174.455,293.732,174.446,295.193,175.807z"/>
<path fill-rule="evenodd" clip-rule="evenodd" fill="#DF6274" d="M550.941,387.936c0.121,1.161,0.51,2.571-1.319,2.521
	c-0.285-0.008-0.527-1.583-0.79-2.434C549.535,387.994,550.238,387.965,550.941,387.936z"/>
<path fill-rule="evenodd" clip-rule="evenodd" fill="#F8F9F9" d="M1379.108,228.007c0.756,0.285,1.049,0.78,0.732,1.409
	c-0.126,0.253-0.483,0.389-0.736,0.577C1379.106,229.331,1379.107,228.669,1379.108,228.007z"/>
<path fill-rule="evenodd" clip-rule="evenodd" fill="#EC3237" d="M1053.632,198.646c0-14.996-0.214-29.995,0.07-44.985
	c0.209-11.05,4.682-16.297,15.419-17.064c17.298-1.236,34.598-1.051,51.778,2.209c35.272,6.692,48.06,33.973,47.522,61.998
	c-0.16,8.331-1.941,16.494-4.313,24.527c-3.557,12.053-11.443,19.86-22.729,24.929c-15.55,6.982-32.12,8.408-48.746,9.34
	c-8.964,0.502-18.01,0.375-26.934-1.046c-9.417-1.5-12.206-4.383-11.862-13.934C1054.392,229.279,1053.648,213.969,1053.632,198.646
	z"/>
<path fill-rule="evenodd" clip-rule="evenodd" fill="#F7F8F6" d="M984.605,97.294c3.276,3.17,7.193,2.297,10.392,3.739
	C991.147,101.691,986.805,103.938,984.605,97.294z"/>
<path fill-rule="evenodd" clip-rule="evenodd" fill="#F7F8F6" d="M963,102.001c0.775,0.528,1.696,0.93,2.293,1.613
	c1.01,1.155,0.846,2.475-0.642,2.976c-1.189,0.401-1.483-0.801-1.576-1.743c-0.093-0.943-0.056-1.899-0.075-2.849V102.001z"/>
<path fill-rule="evenodd" clip-rule="evenodd" fill="#F8F9F9" d="M1384.931,230.148c-0.162,0.779,0.026,2.023-1.158,1.783
	c-0.387-0.079-0.615-1.629-0.645-2.516c-0.018-0.537,0.66-1.589,0.729-1.564C1384.933,228.23,1384.875,229.226,1384.931,230.148z"/>
<path fill-rule="evenodd" clip-rule="evenodd" fill="#F9F8F7" d="M1444.994,423.397c0.416,0.563,1.217,1.213,1.402,2.006
	c0.262,1.117-0.572,1.692-1.615,1.229c-0.672-0.299-2.111,0.007-1.716-1.575C1443.293,424.146,1443.48,423.262,1444.994,423.397z"/>
<polygon fill-rule="evenodd" clip-rule="evenodd" fill="#F8F9F6" points="901,98 901.831,98.458 901.457,98.831 "/>
<path fill-rule="evenodd" clip-rule="evenodd" fill="#F8F9F7" d="M275.001,220.001c0.326-4.862-0.776-9.839,0.912-14.878
	c4.645,5.54,4.236,10.619-0.914,14.877L275.001,220.001z"/>
<path fill-rule="evenodd" clip-rule="evenodd" fill="#F8F9F7" d="M296.237,183.455c-0.244,0.557-0.367,1.415-0.771,1.577
	c-0.393,0.158-1.072-0.396-1.625-0.639c0.243-0.555,0.363-1.419,0.764-1.577C295.003,182.658,295.682,183.212,296.237,183.455z"/>
<path fill-rule="evenodd" clip-rule="evenodd" fill="#F8F9F8" d="M1531.001,312.005c-0.948,0.787-1.829,1.683-2.864,2.329
	c-1.005,0.628-2.047,1.503-3.882,0.647c1.226-3.455,3.137-4.875,6.74-2.986L1531.001,312.005z"/>
<path fill-rule="evenodd" clip-rule="evenodd" fill="#F7F8F7" d="M1799.21,460.633c0.385,0.428,1.052,0.835,1.089,1.291
	c0.063,0.803-0.573,1.061-1.306,0.634c-0.261-0.152-0.505-0.438-0.618-0.72C1798.076,461.096,1798.39,460.68,1799.21,460.633z"/>
<path fill-rule="evenodd" clip-rule="evenodd" fill="#FEFEFE" d="M1331.027,250c-3.24-0.184-4.478-1.965-4.616-5.207
	C1329.737,245.457,1329.774,248.209,1331.027,250z"/>
<path fill-rule="evenodd" clip-rule="evenodd" fill="#FEFEFE" d="M1324.49,234.063c-0.188,0.229-0.375,0.458-0.563,0.688
	c-0.143-0.264-0.413-0.539-0.392-0.789c0.021-0.244,0.339-0.463,0.526-0.693C1324.205,233.532,1324.348,233.798,1324.49,234.063z"/>
<path fill-rule="evenodd" clip-rule="evenodd" fill="#ED2D45" d="M856.993,421.995c-21.327-0.002-42.653-0.003-63.979-0.005
	c-0.514-0.44-0.688-0.883-0.521-1.329c0.167-0.447,0.335-0.671,0.505-0.671c18.227,0.003,36.454-0.042,54.681,0.056
	C850.854,420.063,854.399,418.943,856.993,421.995z"/>
<path fill-rule="evenodd" clip-rule="evenodd" fill="#EC3237" d="M792.997,419.99c0.005,0.667,0.011,1.334,0.016,2
	c-5.337,0.003-10.675,0.007-16.013,0.01c-0.455-4.999,2.295-6.238,6.696-6.049C787.397,416.111,791.132,415.778,792.997,419.99z"/>
</svg>
