<?xml version="1.0" encoding="utf-8"?>
<!-- Generator: Adobe Illustrator 16.0.0, SVG Export Plug-In . SVG Version: 6.00 Build 0)  -->
<!DOCTYPE svg PUBLIC "-//W3C//DTD SVG 1.1//EN" "http://www.w3.org/Graphics/SVG/1.1/DTD/svg11.dtd">
<svg version="1.1" id="Layer_1" xmlns="http://www.w3.org/2000/svg" xmlns:xlink="http://www.w3.org/1999/xlink" x="0px" y="0px"
	 width="100px" height="100px" viewBox="0 0 100 100" enable-background="new 0 0 100 100" xml:space="preserve">
<circle fill-rule="evenodd" clip-rule="evenodd" fill="#E1272B" cx="50" cy="50" r="50"/>
<g>
	
		<path fill-rule="evenodd" clip-rule="evenodd" fill="none" stroke="#F6F6F6" stroke-width="2" stroke-linecap="round" stroke-linejoin="round" stroke-miterlimit="10" d="
		M64.637,52.296c0.107-0.565,0.51-0.938,0.915-1.269c4.19-3.425,7.3-7.682,9.644-12.521c0.564-1.166,1.021-2.385,1.527-3.579
		c0.035-0.083,0.07-0.169,0.123-0.242c0.453-0.621-0.111-1.438,0.465-2.083c0.51-0.573,0.689-1.355,0.875-2.107
		c0.176-0.715,0.422-1.413,0.596-2.128c0.17-0.702,0.281-1.417,0.434-2.124c0.352-1.646,0.656-3.309,0.76-4.982
		c0.107-1.737-0.055-1.781-1.73-1.608c-3.465,0.358-6.875,1.052-10.204,2.103c-0.422,0.133-0.807,0.376-1.159,0.658
		c-0.104,0.083-0.143,0.23-0.364,0.196c-1.134-0.176-2.107,0.376-3.091,0.789c-3.033,1.273-5.919,2.813-8.572,4.781
		c-2.296,1.704-4.387,3.613-6.197,5.831c-0.349,0.426-0.732,0.861-1.328,0.978"/>
	
		<path fill-rule="evenodd" clip-rule="evenodd" fill="none" stroke="#F6F6F6" stroke-width="2" stroke-linecap="round" stroke-linejoin="round" stroke-miterlimit="10" d="
		M62.937,41.486c2.226,0.177,4.342-1.676,4.746-3.825c0.564-3.003-1.528-5.319-3.773-5.718c-2.754-0.49-5.247,1.064-5.733,3.84
		c-0.595,3.395,2.019,5.792,4.699,5.702"/>
	
		<path fill-rule="evenodd" clip-rule="evenodd" fill="none" stroke="#F6F6F6" stroke-width="2" stroke-linecap="round" stroke-linejoin="round" stroke-miterlimit="10" d="
		M39.312,54.604c-0.021-0.021-0.049-0.037-0.06-0.061c-0.582-1.346-0.378-2.645,0.169-3.952c0.286-0.682,0.443-1.417,0.684-2.12
		c0.186-0.542,0.38-1.098,0.792-1.514c0.359-0.362,0.443-0.771,0.289-1.218c-0.128-0.369,0.021-0.603,0.249-0.855
		c0.718-0.797,1.057-1.82,1.566-2.739c1.133-2.046,2.417-3.988,3.782-5.882c0.059-0.082,0.127-0.158,0.181-0.244
		c0.509-0.808,0.49-0.996-0.306-1.514c-2.813-1.829-6.567-1.821-9.295,0.596c-2.383,2.111-3.807,4.761-4.689,7.775
		c-0.289,0.987-0.456,1.909,0.019,2.86"/>
	
		<path fill-rule="evenodd" clip-rule="evenodd" fill="none" stroke="#F6F6F6" stroke-width="2" stroke-linecap="round" stroke-linejoin="round" stroke-miterlimit="10" d="
		M45.021,60.312c0.021,0.021,0.036,0.05,0.062,0.061c1.345,0.581,2.644,0.377,3.951-0.171c0.724-0.303,1.493-0.498,2.242-0.738
		c0.536-0.173,1.068-0.379,1.449-0.799c0.354-0.391,0.771-0.313,1.158-0.218c0.374,0.093,0.604-0.029,0.857-0.257
		c0.798-0.718,1.82-1.057,2.738-1.566c2.045-1.136,3.988-2.416,5.882-3.781c0.083-0.059,0.159-0.127,0.244-0.181
		c0.808-0.509,0.997-0.491,1.514,0.306c1.855,2.867,1.808,6.561-0.602,9.29c-2.102,2.38-4.747,3.825-7.77,4.694
		c-0.987,0.284-1.908,0.455-2.859-0.02"/>
	
		<path fill-rule="evenodd" clip-rule="evenodd" fill="none" stroke="#F6F6F6" stroke-width="2" stroke-linecap="round" stroke-linejoin="round" stroke-miterlimit="10" d="
		M39.312,54.664c-1.897,1.045-3.801,2.074-4.923,4.066c-0.743,1.319-1.202,2.743-1.564,4.196c-0.268,1.074-0.527,2.153-0.568,3.276
		c-0.034,0.911,0.252,1.218,1.164,1.157c2.353-0.154,4.592-0.799,6.732-1.727c1.823-0.788,3.12-2.209,4.021-3.983
		c0.152-0.299,0.347-0.579,0.545-0.851c0.261-0.354,0.272-0.672,0.006-1.04c-0.17-0.237-0.352-0.457-0.556-0.662
		c-1.214-1.215-2.432-2.427-3.642-3.646c-0.336-0.34-0.698-0.632-1.156-0.788"/>
	
		<path fill-rule="evenodd" clip-rule="evenodd" fill="none" stroke="#F6F6F6" stroke-width="2" stroke-linecap="round" stroke-linejoin="round" stroke-miterlimit="10" d="
		M41.316,46.466c0.624,0.223,1.118,0.621,1.583,1.088c3.048,3.066,6.104,6.123,9.171,9.17c0.467,0.465,0.865,0.959,1.088,1.583"/>
	
		<path fill-rule="evenodd" clip-rule="evenodd" fill="none" stroke="#F6F6F6" stroke-width="2" stroke-linecap="round" stroke-linejoin="round" stroke-miterlimit="10" d="
		M66.701,22.72c0.105,0.503,0.365,0.915,0.728,1.277c2.735,2.73,5.468,5.463,8.198,8.199c0.361,0.361,0.773,0.622,1.277,0.727"/>
	
		<path fill-rule="evenodd" clip-rule="evenodd" fill="none" stroke="#F6F6F6" stroke-width="2" stroke-linecap="round" stroke-linejoin="round" stroke-miterlimit="10" d="
		M39.858,70.971c-0.741-0.089-1.211,0.294-1.714,0.806c-2.439,2.48-4.925,4.913-7.397,7.359c-0.11,0.109-0.122,0.229-0.12,0.367
		c0.003,0.304,0.001,0.607,0.001,0.911"/>
	
		<path fill-rule="evenodd" clip-rule="evenodd" fill="none" stroke="#F6F6F6" stroke-width="2" stroke-linecap="round" stroke-linejoin="round" stroke-miterlimit="10" d="
		M30.142,70.971c-0.741-0.089-1.211,0.294-1.714,0.806c-2.439,2.48-4.925,4.913-7.397,7.359c-0.11,0.109-0.123,0.229-0.121,0.367
		c0.003,0.304,0.001,0.607,0.001,0.911"/>
	
		<path fill-rule="evenodd" clip-rule="evenodd" fill="none" stroke="#F6F6F6" stroke-width="2" stroke-linecap="round" stroke-linejoin="round" stroke-miterlimit="10" d="
		M28.593,59.766c0.13,0.628-0.081,1.064-0.561,1.535c-2.545,2.495-5.038,5.043-7.544,7.576c-0.148,0.15-0.318,0.11-0.488,0.119"/>
	
		<path fill-rule="evenodd" clip-rule="evenodd" fill="none" stroke="#F6F6F6" stroke-width="2" stroke-linecap="round" stroke-linejoin="round" stroke-miterlimit="10" d="
		M54.373,58.551c0.159,0.547,0.608,0.951,0.73,1.519c0.305,1.415,0.03,2.778-0.367,4.13c-0.252,0.853-0.832,1.601-0.798,2.551
		c0.012,0.301-0.305,0.415-0.514,0.534c-0.265,0.151-0.581,0.215-0.874,0.315"/>
	
		<path fill-rule="evenodd" clip-rule="evenodd" fill="none" stroke="#F6F6F6" stroke-width="2" stroke-linecap="round" stroke-linejoin="round" stroke-miterlimit="10" d="
		M41.073,45.251c-0.552-0.147-0.946-0.617-1.518-0.731c-1.483-0.298-2.908-0.03-4.312,0.431c-0.767,0.251-1.45,0.756-2.309,0.73
		c-0.355-0.011-0.469,0.308-0.598,0.547c-0.141,0.262-0.212,0.562-0.313,0.846"/>
	
		<path fill-rule="evenodd" clip-rule="evenodd" fill="none" stroke="#F6F6F6" stroke-width="2" stroke-linecap="round" stroke-linejoin="round" stroke-miterlimit="10" d="
		M50.911,48.773c0,0.385,0,0.769,0,1.154"/>
</g>
</svg>
