<?xml version="1.0" encoding="utf-8"?>
<!-- Generator: Adobe Illustrator 16.0.0, SVG Export Plug-In . SVG Version: 6.00 Build 0)  -->
<!DOCTYPE svg PUBLIC "-//W3C//DTD SVG 1.1//EN" "http://www.w3.org/Graphics/SVG/1.1/DTD/svg11.dtd">
<svg version="1.1" id="Layer_1" xmlns="http://www.w3.org/2000/svg" xmlns:xlink="http://www.w3.org/1999/xlink" x="0px" y="0px"
	 width="100px" height="100px" viewBox="0 0 100 100" enable-background="new 0 0 100 100" xml:space="preserve">
<circle fill-rule="evenodd" clip-rule="evenodd" fill="#E1272B" cx="50" cy="50" r="50"/>
<g>
	
		<path fill-rule="evenodd" clip-rule="evenodd" fill="none" stroke="#FFFFFF" stroke-width="2" stroke-linecap="round" stroke-linejoin="round" stroke-miterlimit="10" d="
		M40.42,39.494c-0.523-0.255-1.072-0.347-1.657-0.345c-3.173,0.015-6.346,0.019-9.519,0.004c-4.027-0.019-7.453,2.367-8.756,6.213
		c-1.164,3.438-0.215,6.97,2.498,9.504c1.495,1.396,3.3,2.096,5.332,2.376c0.78,0.107,1.5,0.109,2.279,0.063
		c1.999-0.118,4.01-0.046,6.016-0.035c0.417,0.002,0.804,0.319,1.167,0.319c0.362,0,0.749-0.315,1.166-0.317
		c0.451-0.002,0.883-0.054,1.289-0.254c0.229-0.113,0.439-0.09,0.679-0.005c0.651,0.232,1.333,0.295,2.023,0.318
		c2.463,0.083,4.87,0.515,7.247,1.158c4.25,1.15,8.123,3.013,11.486,5.893c1.568,1.344,2.942,2.848,4.115,4.546
		c0.403,0.585,0.798,1.194,1.408,1.598c0.518,0.343,0.835,0.242,1.168-0.302c0.257-0.42,0.382-0.864,0.365-1.354
		c-0.001-0.041,0-0.081,0-0.123c0-0.962,0-1.923,0-2.886c0-0.941,0-1.883,0-2.825c0-0.961,0-1.923,0-2.886c0-0.962,0-1.923,0-2.886
		c0-0.941-0.168-1.923,0.045-2.813c0.241-1.008-0.054-1.935-0.049-2.896c0.013-2.292,0.015-4.585-0.002-6.877
		c-0.006-0.821,0.439-1.587,0.098-2.468c-0.287-0.738-0.069-1.584-0.088-2.383c-0.019-0.819-0.004-1.638-0.004-2.456
		c0-0.819,0-1.638,0-2.457c0-0.818,0-1.637,0-2.456c0-0.798,0-1.597,0-2.395c0-0.819,0-1.638,0-2.457c0-0.02-0.001-0.041,0-0.061
		c0.039-0.595-0.161-1.112-0.486-1.6c-0.195-0.292-0.453-0.366-0.737-0.235c-0.445,0.204-0.838,0.488-1.11,0.913
		c-1.138,1.777-2.517,3.35-4.052,4.791c-2.156,2.023-4.615,3.593-7.312,4.781c-2.345,1.033-4.768,1.83-7.302,2.291
		c-1.993,0.363-3.994,0.605-6.019,0.664c-0.444,0.013-0.834,0.197-1.229,0.369"/>
	
		<path fill-rule="evenodd" clip-rule="evenodd" fill="none" stroke="#FFFFFF" stroke-width="2" stroke-linecap="round" stroke-linejoin="round" stroke-miterlimit="10" d="
		M29.49,57.638c-0.242,1.117,0.209,2.149,0.448,3.189c0.832,3.613,1.735,7.21,2.627,10.811c0.175,0.703,0.434,1.368,0.971,1.912
		c0.678,0.686,1.529,0.771,2.401,0.783c0.818,0.013,1.648,0.042,2.454-0.071c1.332-0.188,2.37-1.226,2.352-2.807
		c-0.013-1.18-0.251-2.419-1.121-3.378"/>
	
		<path fill-rule="evenodd" clip-rule="evenodd" fill="none" stroke="#FFFFFF" stroke-width="2" stroke-linecap="round" stroke-linejoin="round" stroke-miterlimit="10" d="
		M69.157,43.147c2.971-0.226,5.022,2.299,5.043,5.035c0.023,3.049-2.535,5.448-5.104,5.096"/>
	
		<path fill-rule="evenodd" clip-rule="evenodd" fill="none" stroke="#FFFFFF" stroke-width="2" stroke-linecap="round" stroke-linejoin="round" stroke-miterlimit="10" d="
		M40.481,39.586c0,3.643-0.016,7.287,0.017,10.93c0.005,0.584-0.354,1.104-0.242,1.653c0.109,0.533,0.242,1.049,0.231,1.602
		c-0.02,1.043-0.006,2.087-0.006,3.131"/>
	
		<path fill-rule="evenodd" clip-rule="evenodd" fill="none" stroke="#FFFFFF" stroke-width="2" stroke-linecap="round" stroke-linejoin="round" stroke-miterlimit="10" d="
		M40.113,52.051c-3.233,0-6.469,0-9.702,0"/>
	
		<path fill-rule="evenodd" clip-rule="evenodd" fill="none" stroke="#FFFFFF" stroke-width="2" stroke-linecap="round" stroke-linejoin="round" stroke-miterlimit="10" d="
		M37.78,57.699c-0.075,1.149,0.273,2.226,0.545,3.318c0.147,0.599,0.331,1.229,0.109,1.832c-0.098,0.264,0.088,0.324,0.155,0.431
		c0.795,1.263,0.938,2.702,1.146,4.122c0.028,0.195-0.07,0.409-0.108,0.604c-0.804,0.313-1.632,0.28-2.461,0.224"/>
	
		<path fill-rule="evenodd" clip-rule="evenodd" fill="none" stroke="#FFFFFF" stroke-width="2" stroke-linecap="round" stroke-linejoin="round" stroke-miterlimit="10" d="
		M77.947,37.816c-0.675,0.544-1.289,1.165-1.905,1.777"/>
	
		<path fill-rule="evenodd" clip-rule="evenodd" fill="none" stroke="#FFFFFF" stroke-width="2" stroke-linecap="round" stroke-linejoin="round" stroke-miterlimit="10" d="
		M80,47.866c-0.865-0.057-1.737-0.016-2.605,0.017"/>
	
		<path fill-rule="evenodd" clip-rule="evenodd" fill="none" stroke="#FFFFFF" stroke-width="2" stroke-linecap="round" stroke-linejoin="round" stroke-miterlimit="10" d="
		M78.72,56.368c-0.772-0.392-1.591-0.696-2.402-1.007"/>
</g>
</svg>
