<?xml version="1.0" encoding="utf-8"?>
<!-- Generator: Adobe Illustrator 16.0.0, SVG Export Plug-In . SVG Version: 6.00 Build 0)  -->
<!DOCTYPE svg PUBLIC "-//W3C//DTD SVG 1.1//EN" "http://www.w3.org/Graphics/SVG/1.1/DTD/svg11.dtd">
<svg version="1.1" id="Layer_1" xmlns="http://www.w3.org/2000/svg" xmlns:xlink="http://www.w3.org/1999/xlink" x="0px" y="0px"
	 width="100px" height="100px" viewBox="0 0 100 100" enable-background="new 0 0 100 100" xml:space="preserve">
<circle fill-rule="evenodd" clip-rule="evenodd" fill="#E1272B" cx="50" cy="50" r="50"/>
<g>
	
		<path fill-rule="evenodd" clip-rule="evenodd" fill="none" stroke="#FFFFFF" stroke-width="2" stroke-linecap="round" stroke-linejoin="round" stroke-miterlimit="10" d="
		M39.71,76.651c2.146-0.687,4.353-1.14,6.538-1.671c6.151-1.499,12.31-2.97,18.447-4.522c1.968-0.498,3.671-1.583,5.239-2.882
		c2.865-2.369,5.789-4.667,8.624-7.07c1.018-0.862,2.112-1.641,3.006-2.66c1.252-1.428,1.248-3.669-0.017-5.235
		c-1.144-1.414-3.083-1.968-5.007-1.021c-0.242,0.12-0.496,0.223-0.724,0.367c-0.719,0.457-1.002,0.561-1.747,0.609
		c-0.484-0.712-0.438-1.498-0.438-2.284c0.005-5.618,0.003-11.236,0.001-16.854c0-0.242-0.022-0.484-0.035-0.727"/>
	
		<path fill-rule="evenodd" clip-rule="evenodd" fill="none" stroke="#FFFFFF" stroke-width="2" stroke-linecap="round" stroke-linejoin="round" stroke-miterlimit="10" d="
		M73.636,30.086c-0.012-1.623,0.079-3.25-0.085-4.866c-0.124-1.232-0.772-2.156-1.873-2.768c-0.619-0.343-1.251-0.549-1.965-0.506
		c-0.895,0.054-1.811-0.14-2.686,0.088c-2.063,0.536-3.045,2.056-3.048,4.274c-0.014,8.838-0.006,17.677-0.006,26.516
		c0,1.598,0.007,3.196-0.005,4.795c-0.003,0.521,0.08,1.01,0.368,1.452"/>
	
		<path fill-rule="evenodd" clip-rule="evenodd" fill="none" stroke="#FFFFFF" stroke-width="2" stroke-linecap="round" stroke-linejoin="round" stroke-miterlimit="10" d="
		M59.833,60.016c0-7.725,0-15.449,0.001-23.173c0-0.717,0.005-1.448-0.302-2.102c-0.549-1.168-1.422-1.976-2.751-2.184
		c-1.475-0.231-2.948-0.357-4.356,0.294c-1.38,0.639-2.048,1.745-2.114,3.264c-0.146,3.317-0.021,6.636-0.068,9.953
		c-0.008,0.476,0.174,0.891,0.364,1.308"/>
	
		<path fill-rule="evenodd" clip-rule="evenodd" fill="none" stroke="#FFFFFF" stroke-width="2" stroke-linecap="round" stroke-linejoin="round" stroke-miterlimit="10" d="
		M54.603,22.676c0.395,0.488,0.527,1.053,0.511,1.671c-0.018,0.642,0.072,1.275,0.439,1.812c0.594,0.863,1.471,1.121,2.536,0.804
		c0.892-0.265,1.524-1.164,1.525-2.18c0.002-2.906-0.016-5.812,0.01-8.717c0.009-1.075-0.721-2.229-2.188-2.243
		c-2.954-0.029-5.91-0.061-8.862,0.015c-1.271,0.033-2.126,0.862-2.169,2.301c-0.036,1.242,0.953,2.172,2.241,2.172
		c0.432,0,0.888,0.005,1.223,0.242c0.483,0.342,0.866,0.235,1.326-0.006c0.324-0.171,0.693-0.29,1.083-0.229"/>
	
		<path fill-rule="evenodd" clip-rule="evenodd" fill="none" stroke="#FFFFFF" stroke-width="2" stroke-linecap="round" stroke-linejoin="round" stroke-miterlimit="10" d="
		M42.616,27.107c-0.025-0.072-0.033-0.197-0.076-0.21c-1.436-0.445-2.642-1.358-3.996-1.962c-1.224-0.546-1.876-0.577-2.822,0.363
		c-2.611,2.594-5.185,5.227-7.781,7.837c-2.149,2.161-4.31,4.311-6.465,6.466c-1.041,1.041-2.106,2.06-3.115,3.131
		c-0.704,0.748-1.113,1.563-0.688,2.69c0.475,1.253,2.279,1.857,3.443,0.939c0.545-0.429,0.964-0.975,1.448-1.458
		c1.673-1.669,3.347-3.337,5.013-5.013c3.103-3.121,6.195-6.252,9.304-9.366c0.757-0.758,0.622-0.988,2.028-0.291
		c0.979,0.486,1.939,1.013,2.907,1.521c1.021,0.536,1.995,0.46,2.839-0.357c1.871-1.811,3.775-3.586,5.659-5.383
		c0.929-0.887,1.851-1.783,2.757-2.692c0.219-0.22,0.464-0.438,0.734-0.487c1.159-0.205,1.205-1.1,1.305-1.978"/>
	
		<path fill-rule="evenodd" clip-rule="evenodd" fill="none" stroke="#FFFFFF" stroke-width="2" stroke-linecap="round" stroke-linejoin="round" stroke-miterlimit="10" d="
		M46.466,49.555c-0.269-0.525-0.354-1.078-0.377-1.67c-0.05-1.357,0.178-2.718-0.188-4.073c-0.301-1.117-1.48-2.344-2.922-2.386
		c-1.162-0.034-2.327-0.051-3.486,0.004c-1.455,0.069-2.84,1.197-2.958,2.824c-0.224,3.069-0.062,6.149-0.091,9.224
		c-0.002,0.169,0.024,0.346,0.073,0.508c0.265,0.906,0.264,1.008-0.519,1.518c-0.698,0.455-1.416,0.908-2.182,1.224
		c-0.834,0.345-1.335,1.238-2.465,1.167c-0.829-0.051-1.692,0.427-2.539,0.67c-2.204,0.629-4.405,1.266-6.611,1.887
		c-2.925,0.823-5.045,3.792-3.998,7.558c0.309,1.108,0.539,2.242,0.904,3.331c0.1,0.297,0,0.548,0.079,0.809"/>
	
		<path fill-rule="evenodd" clip-rule="evenodd" fill="none" stroke="#FFFFFF" stroke-width="2" stroke-linecap="round" stroke-linejoin="round" stroke-miterlimit="10" d="
		M32.3,57.909c1.114,2.931,2.237,5.857,3.339,8.791c1.054,2.804,2.075,5.621,3.138,8.422c0.167,0.44,0.319,0.909,0.711,1.244
		s0.151,0.828,0.198,1.232c0.418,3.64-1.677,6.164-4.77,6.831c-2.015,0.435-4.021,0.914-6.03,1.376
		c-0.516,0.118-1.033,0.252-1.539,0.382c-0.443,0.112-1.002-0.243-1.512-0.382c-2.004-0.538-3.312-1.827-3.91-3.781
		c-0.521-1.701-0.938-3.434-1.389-5.155c-0.068-0.258-0.077-0.532-0.113-0.799"/>
	
		<path fill-rule="evenodd" clip-rule="evenodd" fill="none" stroke="#FFFFFF" stroke-width="2" stroke-linecap="round" stroke-linejoin="round" stroke-miterlimit="10" d="
		M29.903,74.69c-1.219,0.178-2.271,0.652-2.826,1.819c-1.146,2.404,0.947,4.552,2.752,4.611c1.678,0.057,3.239-1.376,3.345-3.017
		c0.093-1.44-1.094-3.011-2.472-3.269c-0.242-0.046-0.484-0.098-0.727-0.146"/>
	
		<path fill-rule="evenodd" clip-rule="evenodd" fill="none" stroke="#FFFFFF" stroke-width="2" stroke-linecap="round" stroke-linejoin="round" stroke-miterlimit="10" d="
		M74.071,52.606c-0.369,0.714-0.943,1.216-1.592,1.68c-2.065,1.479-4.073,3.038-6.257,4.345c-0.529,0.317-1.098,0.568-1.739,0.507
		c-0.168-0.017-0.263,0.074-0.361,0.154c-1.142,0.932-2.441,1.15-3.853,0.865c-0.194-0.039-0.395-0.176-0.578-0.063
		c-0.644,0.393-1.35,0.29-2.038,0.28c-1.913-0.026-3.825,0.051-5.74-0.046c-0.7-0.035-1.167-0.325-1.353-0.901
		c-0.183-0.568,0.09-1.121,0.558-1.515c0.814-0.688,1.701-1.302,2.455-2.049c1.604-1.588,2.598-3.526,2.679-5.801
		c0.074-2.03-1.988-3.39-3.983-3.027c-1.329,0.242-2.248,1.057-3.327,1.657c-0.718,0.399-1.39,0.874-2.258,0.865
		c-0.072,0-0.183,0.023-0.212,0.073c-0.612,1.039-1.771,1.329-2.714,1.851c-1.724,0.951-3.491,1.828-5.216,2.786
		c-0.501,0.278-1.068,0.435-1.665,0.373"/>
	
		<path fill-rule="evenodd" clip-rule="evenodd" fill="none" stroke="#FFFFFF" stroke-width="2" stroke-linecap="round" stroke-linejoin="round" stroke-miterlimit="10" d="
		M50.462,18.898c-0.162,0.793-0.672,1.354-1.233,1.891c-1.895,1.811-3.779,3.63-5.668,5.446c-0.28,0.269-0.518,0.598-0.944,0.654"/>
</g>
</svg>
