<?xml version="1.0" encoding="utf-8"?>
<!-- Generator: Adobe Illustrator 16.0.0, SVG Export Plug-In . SVG Version: 6.00 Build 0)  -->
<!DOCTYPE svg PUBLIC "-//W3C//DTD SVG 1.1//EN" "http://www.w3.org/Graphics/SVG/1.1/DTD/svg11.dtd">
<svg version="1.1" id="Layer_1" xmlns="http://www.w3.org/2000/svg" xmlns:xlink="http://www.w3.org/1999/xlink" x="0px" y="0px"
	 width="100px" height="100px" viewBox="0 0 100 100" enable-background="new 0 0 100 100" xml:space="preserve">
<circle fill-rule="evenodd" clip-rule="evenodd" fill="#E1272B" cx="50" cy="50" r="50"/>
<g>
	
		<path fill-rule="evenodd" clip-rule="evenodd" fill="none" stroke="#FBFBFB" stroke-width="2" stroke-linecap="round" stroke-linejoin="round" stroke-miterlimit="10" d="
		M69.844,26.2c0.798,1.407,1.584,2.822,2.395,4.222c1.988,3.43,3.979,6.857,5.996,10.27c0.182,0.306,0.167,0.788,0.553,0.912
		c0.894,0.286,1.778,0.765,2.739,0.628c1.627-0.231,2.782-1.116,3.312-2.728c0.419-1.27-0.038-2.389-0.644-3.445
		c-2.184-3.813-4.405-7.605-6.604-11.41c-0.519-0.897-1.032-1.794-1.976-2.319c-2.357-1.313-5.004,0.167-5.489,2.532
		c-0.048,0.235-0.117,0.467-0.137,0.704c-0.03,0.411-0.221,0.619-0.635,0.715c-0.549,0.126-1.002,0.478-1.486,0.755
		c-0.249,0.143-0.488,0.327-0.847,0.089c-1.557-1.027-3.367-1.375-5.132-1.843c-2.628-0.697-5.266-1.372-7.881-2.12
		c-2.554-0.729-4.861,1.353-4.655,3.671c0.119,1.32,0.976,2.611,2.26,3.093c0.572,0.213,1.156,0.382,1.758,0.505
		c0.541,0.11,1.086,0.306,1.465,0.709c0.291,0.309,0.614,0.325,0.927,0.253c0.54-0.125,1.079-0.122,1.622-0.126"/>
	
		<path fill-rule="evenodd" clip-rule="evenodd" fill="none" stroke="#FBFBFB" stroke-width="2" stroke-linecap="round" stroke-linejoin="round" stroke-miterlimit="10" d="
		M64.282,70.883c0.021,0.357-0.043,0.645-0.342,0.926c-0.951,0.898-1.867,1.838-3.043,2.442c-0.443,0.228-0.566,0.54-0.566,0.995
		c0.002,0.445,0.009,0.89-0.042,1.341c-0.064,0.58-0.334,0.713-0.863,0.71c-3.169-0.017-6.336,0.008-9.503-0.014
		c-2.44-0.017-4.882,0.093-7.322-0.062c-0.115-0.008-0.276,0.003-0.345,0.073c-0.729,0.76-1.631,1.349-1.993,2.452
		c-0.766,2.326,0.603,4.289,2.551,4.857c0.409,0.12,0.833,0.153,1.267,0.153c4.786-0.012,9.572-0.018,14.36-0.004
		c1.773,0.007,3.235-0.98,3.722-2.541c0.41-1.323,0.227-2.58-0.703-3.65c-0.401-0.462-0.885-0.852-1.329-1.274"/>
	
		<path fill-rule="evenodd" clip-rule="evenodd" fill="none" stroke="#FBFBFB" stroke-width="2" stroke-linecap="round" stroke-linejoin="round" stroke-miterlimit="10" d="
		M31.973,50.661c0.578-0.151,0.597,0.463,0.916,0.665c0.145,0.093,0.086,0.387,0.351,0.352c1.046-0.139,1.788,0.524,2.601,0.989
		c0.252,0.144,0.505,0.267,0.779,0.34c0.988,0.267,1.191,0.512,1.193,1.545c0.006,2.744,0.003,5.49,0.003,8.236
		c0,1.031-0.004,2.064,0,3.097c0.009,3.036,1.079,5.579,3.524,7.453c0.586,0.448,0.839,0.958,0.782,1.699
		c-0.056,0.729-0.078,1.474,0.198,2.181"/>
	
		<path fill-rule="evenodd" clip-rule="evenodd" fill="none" stroke="#FBFBFB" stroke-width="2" stroke-linecap="round" stroke-linejoin="round" stroke-miterlimit="10" d="
		M53.02,33.732c-0.956,0.058-1.696-0.485-2.46-0.922c-2.872-1.648-5.699-3.378-8.601-4.975c-2.593-1.428-5.312-1.718-8.088-0.443
		c-0.443,0.204-0.887,0.189-1.34-0.059c-0.7-0.383-1.322-0.909-2.174-1.019c-0.386-0.049-0.388-0.558-0.417-0.89
		c-0.165-1.869-1.37-3.157-3.039-3.507c-1.313-0.277-2.441,0.135-3.381,1.11c-0.656,0.679-1.046,1.512-1.483,2.322
		c-0.077,0.142-0.05,0.236-0.025,0.357"/>
	
		<path fill-rule="evenodd" clip-rule="evenodd" fill="none" stroke="#FBFBFB" stroke-width="2" stroke-linecap="round" stroke-linejoin="round" stroke-miterlimit="10" d="
		M78.572,41.686c-0.495,0.604-1.167,0.98-1.838,1.323c-0.642,0.329-0.836,0.821-0.922,1.491c-0.196,1.536-0.805,2.908-1.736,4.162
		c-1.008,1.357-2.394,2.2-3.813,3.014c-1.966,1.128-3.949,2.228-5.904,3.379c-0.496,0.292-1.019,0.381-1.556,0.481"/>
	
		<path fill-rule="evenodd" clip-rule="evenodd" fill="none" stroke="#FBFBFB" stroke-width="2" stroke-linecap="round" stroke-linejoin="round" stroke-miterlimit="10" d="
		M21.272,41.686c0.464,0.502,1.035,0.861,1.623,1.188c0.329,0.183,0.579,0.376,0.559,0.783c-0.093,1.816,0.518,3.498,0.982,5.21
		c0.673,2.481,1.333,4.955,1.969,7.446c0.352,1.378,0.948,2.499,2.396,3.035c2.426,0.898,4.791-0.938,4.806-3.107
		c0.006-0.939-0.263-1.796-0.499-2.674c-0.16-0.6-0.213-1.222,0.062-1.818"/>
	
		<path fill-rule="evenodd" clip-rule="evenodd" fill="none" stroke="#FBFBFB" stroke-width="2" stroke-linecap="round" stroke-linejoin="round" stroke-miterlimit="10" d="
		M19.865,28.734c0.023,0.263-0.065,0.475-0.202,0.71c-1.424,2.455-2.86,4.902-4.222,7.391c-1.099,2.007-0.052,4.349,2.092,5.156
		c1.316,0.497,2.451,0.053,3.584-0.411c0.353-0.144,0.555-0.7,0.785-1.093c1.205-2.059,2.399-4.126,3.594-6.192
		c1.151-1.993,2.295-3.991,3.452-5.981c0.386-0.665,0.677-1.387,1.193-1.972"/>
	
		<path fill-rule="evenodd" clip-rule="evenodd" fill="none" stroke="#FBFBFB" stroke-width="2" stroke-linecap="round" stroke-linejoin="round" stroke-miterlimit="10" d="
		M66.746,68.418c0.273-0.014,0.54,0.048,0.78-0.205c1.112-1.163,2.248-2.304,3.372-3.454c1.238-1.268,1.182-3.664-0.216-4.921
		c-1.449-1.303-3.376-1.394-4.918-0.071c-0.476,0.409-0.906,0.876-1.339,1.334c-0.426,0.452-0.938,0.71-1.552,0.771"/>
	
		<path fill-rule="evenodd" clip-rule="evenodd" fill="none" stroke="#FBFBFB" stroke-width="2" stroke-linecap="round" stroke-linejoin="round" stroke-miterlimit="10" d="
		M56.257,57.719c0-4.499,0-8.993,0-13.498c0-0.188-0.058-0.402,0.011-0.56c0.413-0.949,0.104-1.705-0.487-2.479
		c-0.611-0.799-1.353-1.249-2.336-1.408c-0.917-0.147-2.312,0.566-2.844,1.259c-0.704,0.919-0.596,1.855-0.571,2.906
		c0.087,3.683,0.033,7.366,0.033,11.035c0,0.916,0,1.83,0,2.745"/>
	
		<path fill-rule="evenodd" clip-rule="evenodd" fill="none" stroke="#FBFBFB" stroke-width="2" stroke-linecap="round" stroke-linejoin="round" stroke-miterlimit="10" d="
		M56.609,42.25c0.34-0.065,0.655-0.203,0.911-0.427c0.695-0.607,1.598-0.473,2.392-0.718c0.197-0.061,0.271,0.056,0.351,0.101
		c1.363,0.767,2.163,1.844,2.135,3.508c-0.054,3.025-0.007,6.054-0.022,9.066c-0.004,0.597,0.243,1.138,0.312,1.693
		c0.063,0.528-0.343,1.076-0.315,1.685c0.042,0.936,0.055,1.879-0.004,2.813c-0.043,0.716,0.399,1.327,0.394,1.972
		c-0.005,0.621-0.486,1.212-0.379,1.9"/>
	
		<path fill-rule="evenodd" clip-rule="evenodd" fill="none" stroke="#FBFBFB" stroke-width="2" stroke-linecap="round" stroke-linejoin="round" stroke-miterlimit="10" d="
		M37.428,53.149c0.333-0.589,0.405-1.224,0.395-1.892c-0.024-1.406-0.018-2.814-0.006-4.222c0.02-2.251,2.197-3.842,4.668-2.801
		c1.385,0.584,1.501,1.535,1.513,2.66c0.033,3.238,0.013,6.464,0.013,9.699c0,0.374,0,0.75,0,1.125"/>
	
		<path fill-rule="evenodd" clip-rule="evenodd" fill="none" stroke="#FBFBFB" stroke-width="2" stroke-linecap="round" stroke-linejoin="round" stroke-miterlimit="10" d="
		M55.132,31.479c-0.14,0.542-0.563,0.831-0.984,1.128c-0.219,0.154-0.435,0.314-0.634,0.493c-0.563,0.508-0.57,0.79,0,1.262
		c1.089,0.901,2.376,1.485,3.588,2.186c0.565,0.326,1.14,0.637,1.688,0.989c1.143,0.734,1.6,2.03,1.271,3.516"/>
	
		<path fill-rule="evenodd" clip-rule="evenodd" fill="none" stroke="#FBFBFB" stroke-width="2" stroke-linecap="round" stroke-linejoin="round" stroke-miterlimit="10" d="
		M49.781,42.25c-0.409-0.121-0.764-0.346-1.129-0.559c-1.71-0.998-3.802-0.293-4.504,1.614c-0.175,0.474-0.374,0.938-0.562,1.409"/>
	
		<path fill-rule="evenodd" clip-rule="evenodd" fill="none" stroke="#FBFBFB" stroke-width="2" stroke-linecap="round" stroke-linejoin="round" stroke-miterlimit="10" d="
		M46.121,37.885c0.787-0.133,1.417,0.215,2.045,0.628c0.931,0.612,2.039,0.966,2.742,1.906"/>
</g>
</svg>
