<?xml version="1.0" encoding="utf-8"?>
<!-- Generator: Adobe Illustrator 16.0.0, SVG Export Plug-In . SVG Version: 6.00 Build 0)  -->
<!DOCTYPE svg PUBLIC "-//W3C//DTD SVG 1.1//EN" "http://www.w3.org/Graphics/SVG/1.1/DTD/svg11.dtd">
<svg version="1.1" id="Layer_1" xmlns="http://www.w3.org/2000/svg" xmlns:xlink="http://www.w3.org/1999/xlink" x="0px" y="0px"
	 width="100px" height="100px" viewBox="0 0 100 100" enable-background="new 0 0 100 100" xml:space="preserve">
<circle fill-rule="evenodd" clip-rule="evenodd" fill="#E1272B" cx="50" cy="50" r="50"/>
<g>
	
		<path fill-rule="evenodd" clip-rule="evenodd" fill="none" stroke="#FFFFFF" stroke-width="2" stroke-linecap="round" stroke-linejoin="round" stroke-miterlimit="10" d="
		M39.57,30.455c-0.607-0.552-0.701-1.36-1.027-2.051c-0.482-1.02-1.094-1.954-1.87-2.776c-0.228-0.241-0.484-0.455-0.611-0.782
		c-0.035-0.092-0.094-0.191-0.229-0.253c-1.421-0.652-2.714-1.574-4.226-2.043c-1.699-0.527-3.42-0.938-5.189-1.15
		c-1.063-0.127-2.123-0.268-3.197-0.239c-0.742,0.02-1.158,0.397-1.142,1.148c0.078,3.6,0.663,7.108,2.241,10.371
		c1.458,3.013,3.86,4.958,7.17,5.592c1.541,0.295,3.119,0.123,4.641-0.337c0.524-0.158,1.05-0.31,1.567-0.489
		c0.138-0.048,0.229-0.056,0.366,0.002c1.383,0.58,2.728,0.235,4.038-0.244c2.925-1.069,4.79-3.217,5.972-6.027
		c0.152-0.364,0.382-0.716,0.305-1.145"/>
	
		<path fill-rule="evenodd" clip-rule="evenodd" fill="none" stroke="#FFFFFF" stroke-width="2" stroke-linecap="round" stroke-linejoin="round" stroke-miterlimit="10" d="
		M47.836,56.398c-0.545-0.846-0.583-1.839-0.772-2.777c-0.537-2.653-1.008-5.317-1.563-7.966c-0.183-0.877-0.333-1.767-0.497-2.651
		c-0.152-0.815-0.563-1.197-1.392-1.204c-1.428-0.01-2.855-0.005-4.282-0.001c-0.537,0.001-1.076-0.183-1.568-0.183
		c-0.494,0-1.033,0.184-1.57,0.183c-2.051-0.003-4.102-0.001-6.154-0.001c-0.905,0-1.406,0.437-1.57,1.327
		c-0.605,3.306-1.248,6.604-1.918,9.897c-0.614,3.026-1.129,6.073-1.704,9.107c-0.213,1.124-0.527,2.229-0.614,3.379
		c-0.016,0.198-0.012,0.404-0.046,0.604"/>
	
		<path fill-rule="evenodd" clip-rule="evenodd" fill="none" stroke="#FFFFFF" stroke-width="2" stroke-linecap="round" stroke-linejoin="round" stroke-miterlimit="10" d="
		M63.282,55.614c0.735,0.006,1.296-0.415,1.868-0.787c2.498-1.623,4.987-3.256,7.483-4.884c1.607-1.048,3.232-2.069,4.818-3.148
		c0.691-0.47,1.683-0.408,2.063,0.432c0.04,0.09,0.122,0.159,0.178,0.243c0.505,0.769,0.392,1.389-0.362,1.929
		c-0.601,0.429-1.219,0.829-1.806,1.272c-0.68,0.514-0.686,0.537-0.417,1.26c0.09,0.244,0.11,0.479,0.11,0.728
		c0.002,8.406,0.002,16.813,0,25.22c0,0.837-0.473,1.415-1.326,1.43c-0.924,0.017-1.871,0.183-2.772-0.17
		c-0.102-0.039-0.152-0.02-0.246-0.002c-1.606,0.307-3.217,0.308-4.824-0.001c-0.134-0.025-0.229-0.037-0.365,0.003
		c-1.331,0.386-2.698,0.201-4.038,0.142c-0.575-0.025-1.116-0.035-1.695,0.005c-0.993,0.068-2.024,0.225-3.014-0.137
		c-0.136-0.05-0.263-0.05-0.424-0.017c-1.605,0.317-3.216,0.308-4.824,0.013c-0.063-0.012-0.138-0.073-0.18-0.054
		c-0.997,0.465-2.054,0.171-3.08,0.227c-0.881,0.047-1.774,0.075-2.651-0.01c-0.853-0.082-1.687-0.039-2.537-0.003
		c-1.808,0.074-3.619,0.021-5.429,0.022c-0.394,0.001-0.783,0.013-1.148-0.177c-0.127-0.064-0.258-0.102-0.425-0.013
		c-0.471,0.246-0.993,0.189-1.504,0.189c-3.358-0.001-6.718-0.023-10.076,0.021c-0.579,0.009-1.087-0.448-1.692-0.15
		c-0.532,0.261-1.123,0.104-1.686,0.124c-0.564,0.021-1.127,0.002-1.689,0.005c-1.05,0.006-1.603-0.723-1.591-1.569
		c0.052-3.298,0.047-6.597,0.004-9.895c-0.012-0.851,0.614-1.498,1.466-1.471c0.862,0.026,1.762,0.221,2.597-0.214
		c0.063-0.033,0.173-0.033,0.236,0c0.795,0.423,1.65,0.221,2.476,0.227c3.018,0.025,6.034,0.01,9.051,0.01"/>
	
		<path fill-rule="evenodd" clip-rule="evenodd" fill="none" stroke="#FFFFFF" stroke-width="2" stroke-linecap="round" stroke-linejoin="round" stroke-miterlimit="10" d="
		M72.995,79.024c0-2.172,0-4.345-0.001-6.517c0-0.886-0.362-1.394-1.207-1.43c-0.961-0.041-1.934-0.102-2.895,0.044
		c-0.618,0.094-0.881,0.361-0.965,0.964c-0.132,0.942-0.047,1.891-0.057,2.836c-0.017,1.367-0.005,2.735-0.005,4.103"/>
	
		<path fill-rule="evenodd" clip-rule="evenodd" fill="none" stroke="#FFFFFF" stroke-width="2" stroke-linecap="round" stroke-linejoin="round" stroke-miterlimit="10" d="
		M58.695,79.024c0-2.052,0.004-4.103-0.003-6.154c0-0.281-0.012-0.568-0.063-0.844c-0.09-0.496-0.338-0.858-0.898-0.907
		c-1.026-0.089-2.055-0.121-3.077,0.007c-0.748,0.095-1.085,0.507-1.087,1.262c-0.003,2.212,0,4.425,0,6.637"/>
	
		<path fill-rule="evenodd" clip-rule="evenodd" fill="none" stroke="#FFFFFF" stroke-width="2" stroke-linecap="round" stroke-linejoin="round" stroke-miterlimit="10" d="
		M38.424,79.024c-0.021-0.362-0.052-0.725-0.059-1.086c-0.007-0.511-0.049-1.007-0.159-1.514c-0.105-0.483,0.258-0.98,0.159-1.504
		c-0.019-0.097,0.021-0.207-0.007-0.301c-0.281-1.026,0.047-2.052,0.007-3.077c-0.038-0.956-0.232-1.087-1.088-1.086
		c-3.62,0-7.241,0-10.86,0c-0.855-0.001-1.066,0.13-1.081,1.086c-0.011,0.587-0.089,1.189,0.183,1.746
		c0.048,0.102,0.029,0.148,0.001,0.247c-0.265,0.907-0.335,1.815,0.049,2.714c0.028,0.068,0.032,0.174,0,0.238
		c-0.4,0.802-0.225,1.643-0.178,2.476"/>
	
		<path fill-rule="evenodd" clip-rule="evenodd" fill="none" stroke="#FFFFFF" stroke-width="2" stroke-linecap="round" stroke-linejoin="round" stroke-miterlimit="10" d="
		M62.497,51.512c-0.441-0.01-0.833,0.11-1.21,0.357c-3.797,2.481-7.601,4.952-11.399,7.426c-1.058,0.688-2.152,1.318-3.139,2.111
		c-0.663,0.534-0.68,0.542-0.413,1.264c0.09,0.244,0.13,0.481,0.108,0.728c-0.084,0.985,0.154,1.978-0.199,2.971
		c-0.114,0.322,0.211,0.806,0.209,1.253c-0.012,3.438-0.008,6.878-0.003,10.317c0,0.361,0.037,0.724,0.057,1.086"/>
	
		<path fill-rule="evenodd" clip-rule="evenodd" fill="none" stroke="#FFFFFF" stroke-width="2" stroke-linecap="round" stroke-linejoin="round" stroke-miterlimit="10" d="
		M62.919,65.811c0-1.608,0.017-3.218-0.008-4.826c-0.009-0.536,0.254-1.022,0.268-1.51c0.012-0.459-0.293-0.93-0.265-1.447
		c0.04-0.77-0.099-1.558,0.253-2.289c0.045-0.093,0.068-0.159,0.023-0.245c-0.447-0.848-0.228-1.766-0.265-2.654
		c-0.012-0.31,0.021-0.657-0.143-0.895c-0.34-0.5-0.07-0.783,0.255-1.098c0.577-0.559,1.275-0.941,1.929-1.392
		c0.64-0.441,0.842-1.046,0.607-1.624c-0.373-0.917-0.989-1.377-1.751-1.333c-0.236,0.014-0.417,0.124-0.603,0.246
		c-3.077,2.012-6.152,4.026-9.231,6.033c-1.707,1.112-3.418,2.213-5.128,3.319c-0.062,0.04-0.115,0.104-0.182,0.118
		c-1.223,0.262-1.862,1.381-2.885,1.951c-1.09,0.606-2.123,1.321-3.141,2.044c-0.688,0.488-0.715,1.063-0.255,1.803
		c0.335,0.535,0.611,1.092,1.395,1.032c0.323-0.025,0.613-0.135,0.836-0.321c0.438-0.37,0.936-0.533,1.486-0.594"/>
	
		<path fill-rule="evenodd" clip-rule="evenodd" fill="none" stroke="#FFFFFF" stroke-width="2" stroke-linecap="round" stroke-linejoin="round" stroke-miterlimit="10" d="
		M37.156,47.107c-0.483-0.056-0.751,0.293-0.954,0.61c-1.108,1.735-2.193,3.487-3.265,5.246c-0.43,0.705-0.057,1.345,0.78,1.382
		c0.321,0.015,0.645-0.007,0.966,0.005c0.698,0.023,0.89,0.203,0.899,0.902c0.017,0.905,0.01,1.811,0.002,2.715
		c-0.004,0.282,0.021,0.558,0.127,0.813c0.271,0.65,0.825,0.724,1.327,0.216c0.735-0.743,1.157-1.697,1.738-2.543
		c0.603-0.878,1.14-1.802,1.695-2.711c0.213-0.351,0.379-0.748,0.173-1.139c-0.203-0.386-0.609-0.439-1.015-0.429
		c-1.718,0.039-1.77-0.104-1.751-1.749c0.007-0.704,0.023-1.409-0.007-2.112c-0.021-0.492-0.037-1.023-0.656-1.207"/>
	
		<path fill-rule="evenodd" clip-rule="evenodd" fill="none" stroke="#FFFFFF" stroke-width="2" stroke-linecap="round" stroke-linejoin="round" stroke-miterlimit="10" d="
		M49.465,27.438c-0.086-1.004,0.186-1.973,0.308-2.956c0.122-0.983,0.229-1.967,0.169-2.957c-0.033-0.544-0.598-0.926-1.322-0.901
		c-3.009,0.103-5.967,0.519-8.808,1.568c-0.973,0.36-1.903,0.816-2.777,1.383c-0.427,0.277-0.792,0.611-1.085,1.028"/>
	
		<path fill-rule="evenodd" clip-rule="evenodd" fill="none" stroke="#FFFFFF" stroke-width="2" stroke-linecap="round" stroke-linejoin="round" stroke-miterlimit="10" d="
		M76.888,51.391c-1.055,0.021-1.756,0.774-2.557,1.281c-2.537,1.61-5.035,3.286-7.552,4.933c-0.778,0.51-1.592,0.975-2.342,1.522
		c-0.368,0.27-0.773,0.227-1.155,0.349"/>
	
		<path fill-rule="evenodd" clip-rule="evenodd" fill="none" stroke="#FFFFFF" stroke-width="2" stroke-linecap="round" stroke-linejoin="round" stroke-miterlimit="10" d="
		M38.061,73.413c-4.142,0-8.285,0-12.429,0"/>
	
		<path fill-rule="evenodd" clip-rule="evenodd" fill="none" stroke="#FFFFFF" stroke-width="2" stroke-linecap="round" stroke-linejoin="round" stroke-miterlimit="10" d="
		M38.061,76.31c-3.86,0-7.723-0.002-11.583,0.002c-0.262,0.001-0.522,0.037-0.785,0.058"/>
	
		<path fill-rule="evenodd" clip-rule="evenodd" fill="none" stroke="#FFFFFF" stroke-width="2" stroke-linecap="round" stroke-linejoin="round" stroke-miterlimit="10" d="
		M27.502,26.171c-0.085,0.395,0.186,0.609,0.422,0.846c2.135,2.129,4.272,4.256,6.394,6.397c0.79,0.796,1.343,1.765,1.967,2.689
		c0.715,1.059,1.082,2.169,1.242,3.4c0.087,0.664,0.255,1.316,0.234,1.992"/>
	
		<path fill-rule="evenodd" clip-rule="evenodd" fill="none" stroke="#FFFFFF" stroke-width="2" stroke-linecap="round" stroke-linejoin="round" stroke-miterlimit="10" d="
		M62.919,68.104c0,3.358,0.002,6.718-0.003,10.076c0,0.262-0.037,0.522-0.057,0.784"/>
	
		<path fill-rule="evenodd" clip-rule="evenodd" fill="none" stroke="#FFFFFF" stroke-width="2" stroke-linecap="round" stroke-linejoin="round" stroke-miterlimit="10" d="
		M46.146,66.414c-2.595,0-5.188,0-7.783,0"/>
	
		<path fill-rule="evenodd" clip-rule="evenodd" fill="none" stroke="#FFFFFF" stroke-width="2" stroke-linecap="round" stroke-linejoin="round" stroke-miterlimit="10" d="
		M45.12,26.02c-0.464-0.011-0.815,0.149-1.157,0.502c-1.056,1.095-2.164,2.14-3.244,3.211c-0.219,0.217-0.445,0.439-0.729,0.53
		c-0.563,0.181-0.672,0.596-0.66,1.096c0.027,1.162-0.082,2.311-0.366,3.438c-0.112,0.448-0.246,0.884-0.53,1.274
		c-0.271,0.372-0.419,0.818-0.553,1.261"/>
</g>
</svg>
