<?xml version="1.0" encoding="utf-8"?>
<!-- Generator: Adobe Illustrator 16.0.0, SVG Export Plug-In . SVG Version: 6.00 Build 0)  -->
<!DOCTYPE svg PUBLIC "-//W3C//DTD SVG 1.1//EN" "http://www.w3.org/Graphics/SVG/1.1/DTD/svg11.dtd">
<svg version="1.1" id="Layer_1" xmlns="http://www.w3.org/2000/svg" xmlns:xlink="http://www.w3.org/1999/xlink" x="0px" y="0px"
	 width="100px" height="100px" viewBox="0 0 100 100" enable-background="new 0 0 100 100" xml:space="preserve">
<circle fill-rule="evenodd" clip-rule="evenodd" fill="#E1272B" cx="50" cy="50" r="50"/>
<g>
	
		<path fill-rule="evenodd" clip-rule="evenodd" fill="none" stroke="#FFFFFF" stroke-width="2" stroke-linecap="round" stroke-linejoin="round" stroke-miterlimit="10" d="
		M69.475,79.954c0.059-1.144-0.561-2.153-0.933-3.195c-1.517-4.261-3.11-8.494-4.661-12.744c-0.149-0.411-0.274-0.834-0.561-1.163
		c-0.318-0.367-0.381-0.684-0.078-1.104c0.772-1.074,1.311-2.285,1.966-3.429c0.857-1.497,2.218-2.422,3.745-3.125
		c0.747-0.343,1.41-0.789,2.037-1.323c1.053-0.896,1.354-2.078,1.394-3.368c0.029-0.962,0.05-1.929-0.004-2.89
		c-0.094-1.67,0.736-2.98,1.572-4.297c0.182-0.287,0.364-0.573,0.547-0.859c1.332-2.101,0.898-4.112-0.412-6.001
		c-0.493-0.71-0.909-1.453-1.29-2.21c-0.477-0.946-0.44-1.996-0.421-3.039c0.017-0.936,0.049-1.872-0.051-2.813
		c-0.207-1.951-1.424-3.087-3.067-3.812c-2.302-1.014-3.913-2.63-4.933-4.93c-0.7-1.58-1.789-2.795-3.653-3.063
		c-0.914-0.131-1.838-0.138-2.733-0.045c-1.974,0.206-3.668-0.433-5.226-1.525c-0.484-0.339-0.979-0.656-1.501-0.909
		c-1.428-0.693-2.853-0.677-4.299,0.051c-0.873,0.44-1.645,1.028-2.482,1.516c-1.281,0.746-2.629,0.923-4.073,0.859
		c-0.933-0.041-1.873-0.084-2.813,0.054c-1.856,0.274-2.961,1.465-3.656,3.061c-1.007,2.307-2.624,3.924-4.931,4.93
		c-1.595,0.696-2.785,1.801-3.061,3.656c-0.136,0.914-0.139,1.837-0.046,2.733c0.205,1.974-0.438,3.664-1.521,5.228
		c-0.317,0.457-0.589,0.929-0.848,1.415c-0.775,1.459-0.745,2.901-0.009,4.38c0.563,1.132,1.392,2.1,1.9,3.269
		c0.444,1.021,0.481,2.056,0.466,3.132c-0.014,0.988-0.079,1.979,0.06,2.969c0.261,1.865,1.476,2.965,3.062,3.651
		c2.293,0.993,3.927,2.598,4.899,4.869c0.307,0.717,0.823,1.278,1.191,1.944c0.195,0.353,0.148,0.632-0.08,0.943
		c-0.826,1.12-1.078,2.487-1.553,3.753c-1.496,3.995-2.932,8.015-4.387,12.026c-0.165,0.453-0.38,0.916-0.304,1.403"/>
	
		<path fill-rule="evenodd" clip-rule="evenodd" fill="none" stroke="#FFFFFF" stroke-width="2" stroke-linecap="round" stroke-linejoin="round" stroke-miterlimit="10" d="
		M58.639,84.722c-1.183-0.875-1.318-2.297-1.777-3.523c-1.739-4.645-3.404-9.316-5.098-13.978c-0.02-0.054-0.054-0.104-0.077-0.156
		c-0.726-1.612-0.42-1.347-2.026-1.066c-0.642,0.111-1.212-0.054-1.799-0.131c-0.554-0.072-0.794-0.014-1.042,0.563
		c-1.2,2.791-2.11,5.688-3.173,8.528c-0.998,2.669-1.915,5.369-2.912,8.039c-0.228,0.609-0.441,1.272-1.075,1.652"/>
	
		<path fill-rule="evenodd" clip-rule="evenodd" fill="none" stroke="#FFFFFF" stroke-width="2" stroke-linecap="round" stroke-linejoin="round" stroke-miterlimit="10" d="
		M59.733,36.284c-0.839-0.869-1.979-0.841-3.048-1.012c-1.091-0.175-2.187-0.317-3.28-0.473c-0.602-0.085-0.855-0.546-1.093-1.017
		c-0.629-1.248-1.271-2.49-1.867-3.753c-0.303-0.641-0.661-1.417-1.337-1.417s-1.036,0.775-1.337,1.417
		c-0.543,1.16-1.194,2.271-1.691,3.449c-0.375,0.89-0.986,1.351-1.895,1.473c-1.273,0.171-2.551,0.318-3.827,0.472
		c-0.719,0.086-1.344,0.369-1.875,0.86"/>
	
		<path fill-rule="evenodd" clip-rule="evenodd" fill="none" stroke="#FFFFFF" stroke-width="2" stroke-linecap="round" stroke-linejoin="round" stroke-miterlimit="10" d="
		M38.818,37.136c0.104,0.328,0.426,0.6,0.685,0.863c0.928,0.947,1.819,1.939,2.826,2.795c0.698,0.593,0.815,1.258,0.682,2.051
		c-0.22,1.305-0.457,2.606-0.703,3.906c-0.096,0.5-0.175,1.015,0.02,1.479"/>
	
		<path fill-rule="evenodd" clip-rule="evenodd" fill="none" stroke="#FFFFFF" stroke-width="2" stroke-linecap="round" stroke-linejoin="round" stroke-miterlimit="10" d="
		M59.396,37.136c-0.095,0.327-0.425,0.6-0.683,0.863c-0.929,0.947-1.819,1.939-2.826,2.795c-0.698,0.593-0.815,1.258-0.682,2.051
		c0.22,1.305,0.459,2.606,0.702,3.906c0.088,0.472,0.181,0.958-0.015,1.402"/>
	
		<path fill-rule="evenodd" clip-rule="evenodd" fill="none" stroke="#FFFFFF" stroke-width="2" stroke-linecap="round" stroke-linejoin="round" stroke-miterlimit="10" d="
		M62.937,62.377c-1.799,0.658-3.64,0.753-5.549,0.657c-2.521-0.127-4.51,1.149-6.248,2.858"/>
	
		<path fill-rule="evenodd" clip-rule="evenodd" fill="none" stroke="#FFFFFF" stroke-width="2" stroke-linecap="round" stroke-linejoin="round" stroke-miterlimit="10" d="
		M55.671,48.862c-1.353,0.151-2.323-0.755-3.434-1.26c-0.804-0.366-1.572-0.813-2.346-1.244c-0.531-0.295-1.033-0.29-1.566,0
		c-1.27,0.689-2.555,1.351-3.824,2.039c-0.615,0.333-1.251,0.53-1.955,0.466"/>
	
		<path fill-rule="evenodd" clip-rule="evenodd" fill="none" stroke="#FFFFFF" stroke-width="2" stroke-linecap="round" stroke-linejoin="round" stroke-miterlimit="10" d="
		M58.796,84.799c1.355-0.704,1.772-2.146,2.575-3.283c0.379-0.536,0.777-1.067,1.083-1.646c0.297-0.56,0.729-0.521,1.183-0.376
		c1.075,0.342,2.146,0.702,3.203,1.092c0.842,0.311,1.687,0.493,2.581,0.307"/>
	
		<path fill-rule="evenodd" clip-rule="evenodd" fill="none" stroke="#FFFFFF" stroke-width="2" stroke-linecap="round" stroke-linejoin="round" stroke-miterlimit="10" d="
		M39.421,84.799c-1.355-0.704-1.772-2.146-2.576-3.283c-0.379-0.536-0.776-1.067-1.083-1.646c-0.297-0.56-0.729-0.521-1.183-0.376
		c-1.074,0.342-2.145,0.702-3.203,1.092c-0.842,0.311-1.686,0.493-2.58,0.307"/>
	
		<path fill-rule="evenodd" clip-rule="evenodd" fill="none" stroke="#FFFFFF" stroke-width="2" stroke-linecap="round" stroke-linejoin="round" stroke-miterlimit="10" d="
		M35.28,62.377c2.014,0.854,4.14,0.734,6.249,0.691c0.95-0.02,1.766,0.289,2.582,0.709c1.094,0.563,2.145,1.176,2.966,2.115"/>
	
		<path fill-rule="evenodd" clip-rule="evenodd" fill="none" stroke="#FFFFFF" stroke-width="2" stroke-linecap="round" stroke-linejoin="round" stroke-miterlimit="10" d="
		M47.624,21.049c-1.243,0.294-2.518,0.392-3.756,0.763c-5.104,1.53-8.879,4.667-11.386,9.323c-1.107,2.057-1.732,4.279-1.986,6.63
		c-0.578,5.348,0.93,10.038,4.324,14.134c2.757,3.325,6.315,5.38,10.54,6.249c1.879,0.386,3.767,0.476,5.704,0.274
		c3.556-0.368,6.72-1.653,9.516-3.797c3.696-2.833,6.117-6.614,6.917-11.165c1.31-7.459-1.031-13.711-6.986-18.502
		c-2.249-1.81-4.83-2.93-7.651-3.524c-1.705-0.359-3.426-0.432-5.157-0.386"/>
</g>
</svg>
