<?xml version="1.0" encoding="utf-8"?>
<!-- Generator: Adobe Illustrator 16.0.0, SVG Export Plug-In . SVG Version: 6.00 Build 0)  -->
<!DOCTYPE svg PUBLIC "-//W3C//DTD SVG 1.1//EN" "http://www.w3.org/Graphics/SVG/1.1/DTD/svg11.dtd">
<svg version="1.1" id="Layer_1" xmlns="http://www.w3.org/2000/svg" xmlns:xlink="http://www.w3.org/1999/xlink" x="0px" y="0px"
	 width="100px" height="100px" viewBox="0 0 100 100" enable-background="new 0 0 100 100" xml:space="preserve">
<circle fill-rule="evenodd" clip-rule="evenodd" fill="#E1272B" cx="50" cy="50" r="50"/>
<g>
	
		<path fill-rule="evenodd" clip-rule="evenodd" fill="none" stroke="#FFFFFF" stroke-width="2" stroke-linecap="round" stroke-linejoin="round" stroke-miterlimit="10" d="
		M49.212,22.779c0.894,0,1.788,0.021,2.683-0.004c1.83-0.051,3.496,0.385,5.094,1.327c2.569,1.515,5.001,3.229,7.478,4.879
		c0.723,0.481,0.559,1.484,0.063,1.775c-0.046,0.027-0.092,0.061-0.141,0.069c-1.238,0.208-1.411,1.07-1.35,2.12
		c0.042,0.704,0.01,1.411,0.007,2.117c-0.002,0.899-0.422,1.31-1.34,1.344c-0.659,0.024-1.318,0.016-1.978,0.042
		c-0.755,0.029-1.101,0.404-1.422,1.009c-1.292,2.437-2.623,4.854-3.944,7.274c-0.122,0.223-0.254,0.45-0.427,0.631
		c-0.393,0.412-1.087,0.42-1.471-0.001c-0.313-0.347-0.557-0.758-0.856-1.12c-0.345-0.415-0.707-0.71-1.336-0.738
		c-0.896-0.04-1.792-0.052-2.684-0.025c-0.781,0.024-1.233,0.43-1.251,1.185c-0.029,1.221-0.094,2.447,0.041,3.672
		c0.048,0.437,0.201,0.756,0.573,0.988c1.838,1.149,3.628,2.382,5.522,3.428c1.192,0.659,2.505,0.544,3.574-0.404
		c0.968-0.858,2.026-1.257,3.328-1.207c1.738,0.066,3.482,0.034,5.223,0.012c1.904-0.024,3.279,0.809,4.164,2.477
		c0.711,1.338,1.52,2.638,2.088,4.035c0.532,1.308,1.336,1.858,2.714,1.688c1.11-0.138,2.106,0.925,2.059,2.041
		c-0.054,1.249-0.58,2.209-1.644,2.809c-0.951,0.537-1.941,1.032-2.966,1.401c-0.815,0.294-1.04,0.827-1.049,1.578
		c-0.006,0.423-0.028,0.849,0.004,1.27c0.104,1.354-0.367,2.513-1.209,3.525c-1.75,2.106-3.526,4.191-5.29,6.287
		c-0.731,0.868-1.487,1.72-2.175,2.621c-0.283,0.372-0.536,0.813-0.51,1.332c0.016,0.279-0.098,0.467-0.345,0.644
		c-1.008,0.727-2.091,1.273-3.324,1.467c-0.699,0.11-1.401,0.311-2.118,0.081c-0.086-0.027-0.187-0.003-0.281-0.003
		c0.009,0.08-0.176,0.015-0.106,0.141c-0.969,0.497-2.047,0.397-3.072,0.469c-2.048,0.143-4.104,0.017-6.138-0.267
		c-4.928-0.685-9.531-2.301-13.766-4.933c-4.503-2.798-8.197-6.425-11.08-10.872c-2.47-3.81-4.075-7.961-4.961-12.418
		c-0.601-3.022-0.692-6.071-0.513-9.107c0.237-4.013,1.211-7.893,2.862-11.577c1.381-3.078,3.146-5.918,5.358-8.476
		c0.354-0.411,0.682-0.837,1.201-1.059c0.206-0.088,0.278-0.265,0.376-0.481c0.397-0.88,1.216-1.419,1.902-2.037
		c0.97-0.873,2.005-1.68,3.082-2.429c0.421-0.292,0.867-0.482,1.347-0.628c0.228-0.069,0.449-0.155,0.636,0.073
		c0.661,0.805,1.683,0.96,2.536,1.42c0.875,0.471,1.782,0.581,2.759,0.568c2.705-0.036,5.411-0.013,8.117-0.013"/>
	
		<path fill-rule="evenodd" clip-rule="evenodd" fill="none" stroke="#FFFFFF" stroke-width="2" stroke-linecap="round" stroke-linejoin="round" stroke-miterlimit="10" d="
		M24.859,26.167c0.682,0.706,1.396,1.385,2.039,2.123c1.181,1.353,1.246,2.895,0.637,4.509c-0.096,0.253-0.29,0.466-0.415,0.71
		c-0.474,0.927-0.415,1.811,0.051,2.76c0.747,1.521,1.39,3.095,2.062,4.652c0.457,1.06,0.867,1.34,2.05,1.34
		c1.271,0,2.543,0.041,3.812-0.015c0.766-0.033,1.148,0.496,1.266,1.004c0.461,1.997,0.901,3.999,1.345,5.999
		c0.083,0.374,0.139,0.753,0.215,1.128c0.14,0.69,0.455,1.168,1.192,1.43c2.042,0.725,4.053,1.537,6.078,2.311
		c1.287,0.492,2.601,0.945,3.525,2.051c1.076,1.286,1.53,2.725,1.383,4.447c-0.114,1.323-0.226,2.693,0.106,4.02
		c0.318,1.266,1.079,2.157,2.324,2.615c1.063,0.39,2.116,0.804,3.179,1.195c0.785,0.289,1.067,0.646,1.152,1.624
		c0.213,2.464-0.321,4.777-1.313,6.982c-1.062,2.364-1.041,4.797-0.759,7.278"/>
	
		<path fill-rule="evenodd" clip-rule="evenodd" fill="none" stroke="#FFFFFF" stroke-width="2" stroke-linecap="round" stroke-linejoin="round" stroke-miterlimit="10" d="
		M82.317,37.532c-0.627,0.25-1.244,0.247-1.909,0.084c-1.707-0.417-3.449-0.703-5.145-1.159c-1.887-0.509-3.218-1.72-3.882-3.585
		c-0.363-1.024-0.218-2.09,0.022-3.097c0.22-0.922,0.023-1.766-0.183-2.615c-0.272-1.131-0.841-2.188-0.839-3.392
		c0-0.296-0.014-0.623,0.158-0.837c0.47-0.584,0.114-1.014-0.231-1.415c-0.502-0.582-1.199-0.94-1.838-1.33
		c-4.328-2.641-8.997-4.391-14.039-5.01c-2.621-0.322-5.258-0.321-7.906-0.042c-4.11,0.434-8.01,1.525-11.714,3.342
		c-0.643,0.315-1.269,0.662-1.907,0.984c-0.535,0.27-0.902,0.699-1.199,1.202"/>
	
		<path fill-rule="evenodd" clip-rule="evenodd" fill="none" stroke="#FFFFFF" stroke-width="2" stroke-linecap="round" stroke-linejoin="round" stroke-miterlimit="10" d="
		M84.965,52.427c-0.178,2.974-0.79,5.854-1.719,8.685c-1.431,4.358-3.69,8.238-6.654,11.708c-3.447,4.035-7.636,7.099-12.486,9.252
		c-0.416,0.184-0.86,0.302-1.267,0.503c-0.683,0.337-1.357,0.367-2.051,0.064"/>
	
		<path fill-rule="evenodd" clip-rule="evenodd" fill="none" stroke="#FFFFFF" stroke-width="2" stroke-linecap="round" stroke-linejoin="round" stroke-miterlimit="10" d="
		M70.883,22.355c1.052,0.042,1.701,0.807,2.388,1.425c2.972,2.672,5.486,5.729,7.414,9.239c0.577,1.05,1.146,2.112,1.557,3.244
		c0.111,0.311,0.212,0.649,0.135,0.983c-0.026,0.113-0.09,0.188,0.012,0.286c1.035,1.004,1.177,2.391,1.547,3.672
		c0.595,2.051,0.854,4.163,1.065,6.281"/>
</g>
</svg>
